<?xml version="1.0" standalone="no"?>
<!DOCTYPE svg PUBLIC "-//W3C//DTD SVG 1.1//EN" "http://www.w3.org/Graphics/SVG/1.1/DTD/svg11.dtd" >
<svg xmlns="http://www.w3.org/2000/svg">
<metadata>
Created by FontForge 20120731 at Sat Jul 15 15:07:13 2017
 By admin
</metadata>
<defs>
<font id="iconfont" horiz-adv-x="1024" >
  <font-face 
    font-family="iconfont"
    font-weight="500"
    font-stretch="normal"
    units-per-em="1024"
    panose-1="2 0 6 3 0 0 0 0 0 0"
    ascent="896"
    descent="-128"
    x-height="792"
    bbox="-0.228813 -212 5240 896.026"
    underline-thickness="0"
    underline-position="0"
    unicode-range="U+0078-E7E0"
  />
<missing-glyph 
 />
    <glyph glyph-name=".notdef" 
 />
    <glyph glyph-name=".notdef" 
 />
    <glyph glyph-name=".null" horiz-adv-x="0" 
 />
    <glyph glyph-name="nonmarkingreturn" horiz-adv-x="341" 
 />
    <glyph glyph-name="x" unicode="x" horiz-adv-x="1001" 
d="M281 543q-27 -1 -53 -1h-83q-18 0 -36.5 -6t-32.5 -18.5t-23 -32t-9 -45.5v-76h912v41q0 16 -0.5 30t-0.5 18q0 13 -5 29t-17 29.5t-31.5 22.5t-49.5 9h-133v-97h-438v97zM955 310v-52q0 -23 0.5 -52t0.5 -58t-10.5 -47.5t-26 -30t-33 -16t-31.5 -4.5q-14 -1 -29.5 -0.5
t-29.5 0.5h-32l-45 128h-439l-44 -128h-29h-34q-20 0 -45 1q-25 0 -41 9.5t-25.5 23t-13.5 29.5t-4 30v167h911zM163 247q-12 0 -21 -8.5t-9 -21.5t9 -21.5t21 -8.5q13 0 22 8.5t9 21.5t-9 21.5t-22 8.5zM316 123q-8 -26 -14 -48q-5 -19 -10.5 -37t-7.5 -25t-3 -15t1 -14.5
t9.5 -10.5t21.5 -4h37h67h81h80h64h36q23 0 34 12t2 38q-5 13 -9.5 30.5t-9.5 34.5q-5 19 -11 39h-368zM336 498v228q0 11 2.5 23t10 21.5t20.5 15.5t34 6h188q31 0 51.5 -14.5t20.5 -52.5v-227h-327z" />
    <glyph glyph-name="zengjia" unicode="&#xe62e;" 
d="M848 -52h-96q-7 0 -11.5 4.5t-4.5 11.5t4.5 11.5t11.5 4.5h80v80q0 7 4.5 11.5t11.5 4.5t11.5 -4.5t4.5 -11.5v-96q0 -7 -4.5 -11.5t-11.5 -4.5zM848 140q-7 0 -11.5 4.5t-4.5 11.5v96q0 7 4.5 11.5t11.5 4.5t11.5 -4.5t4.5 -11.5v-96q0 -7 -4.5 -11.5t-11.5 -4.5z
M848 332q-7 0 -11.5 4.5t-4.5 11.5v96q0 7 4.5 11.5t11.5 4.5t11.5 -4.5t4.5 -11.5v-96q0 -7 -4.5 -11.5t-11.5 -4.5zM848 524q-7 0 -11.5 4.5t-4.5 11.5v80h-80q-7 0 -11.5 4.5t-4.5 11.5t4.5 11.5t11.5 4.5h96q7 0 11.5 -4.5t4.5 -11.5v-96q0 -7 -4.5 -11.5t-11.5 -4.5z
M656 -52h-96q-7 0 -11.5 4.5t-4.5 11.5t4.5 11.5t11.5 4.5h96q7 0 11.5 -4.5t4.5 -11.5t-4.5 -11.5t-11.5 -4.5zM656 620h-96q-7 0 -11.5 4.5t-4.5 11.5t4.5 11.5t11.5 4.5h96q7 0 11.5 -4.5t4.5 -11.5t-4.5 -11.5t-11.5 -4.5zM638 332q13 0 22.5 -9.5t9.5 -22.5t-9.5 -22.5
t-22.5 -9.5h-96v-96q0 -13 -9.5 -22.5t-22.5 -9.5t-22.5 9.5t-9.5 22.5v96h-96q-13 0 -22.5 9.5t-9.5 22.5t9.5 22.5t22.5 9.5h96v96q0 13 9.5 22.5t22.5 9.5t22.5 -9.5t9.5 -22.5v-96h96zM464 620h-96q-7 0 -11.5 4.5t-4.5 11.5t4.5 11.5t11.5 4.5h96q7 0 11.5 -4.5
t4.5 -11.5t-4.5 -11.5t-11.5 -4.5zM272 -52h-96q-7 0 -11.5 4.5t-4.5 11.5v96q0 7 4.5 11.5t11.5 4.5t11.5 -4.5t4.5 -11.5v-80h80q7 0 11.5 -4.5t4.5 -11.5t-4.5 -11.5t-11.5 -4.5zM272 620h-80v-80q0 -7 -4.5 -11.5t-11.5 -4.5t-11.5 4.5t-4.5 11.5v96q0 7 4.5 11.5
t11.5 4.5h96q7 0 11.5 -4.5t4.5 -11.5t-4.5 -11.5t-11.5 -4.5zM176 460q7 0 11.5 -4.5t4.5 -11.5v-96q0 -7 -4.5 -11.5t-11.5 -4.5t-11.5 4.5t-4.5 11.5v96q0 7 4.5 11.5t11.5 4.5zM176 268q7 0 11.5 -4.5t4.5 -11.5v-96q0 -7 -4.5 -11.5t-11.5 -4.5t-11.5 4.5t-4.5 11.5v96
q0 7 4.5 11.5t11.5 4.5zM368 -20h96q7 0 11.5 -4.5t4.5 -11.5t-4.5 -11.5t-11.5 -4.5h-96q-7 0 -11.5 4.5t-4.5 11.5t4.5 11.5t11.5 4.5z" />
    <glyph glyph-name="danganguanli" unicode="&#xe61a;" 
d="M250 453h38v41q0 30 -11 39q-23 -23 -27 -80zM953 761h-872q-19 0 -32.5 -13.5t-13.5 -32.5v-872q0 -19 13.5 -32.5t32.5 -13.5h872q19 0 32.5 13.5t13.5 32.5v872q0 19 -13 32.5t-33 13.5zM822 93q0 -18 -4.5 -36.5t-14 -37.5t-29.5 -31.5t-46 -12.5h-396q-15 2 -26 13
q-18 17 -18 51v376h-76v19q0 92 42 129q25 22 55 20h371q33 0 49 -22t16 -47v-403l77 1v-19v0zM708 514q-1 31 -28 31l-366 1q12 -21 12 -52v-455q0 -24 10 -26q6 1 12 7.5t11 25t5 46.5v18l344 1v403v0zM646 177h-250v38h250v-38zM646 261h-250v38h250v-38zM646 345h-250
v38h250v-38zM646 429h-250v38h250v-38zM388 13h340q45 0 55 61l-381 -1q-3 -37 -14 -60z" />
    <glyph glyph-name="zhuanzhengshenqing" unicode="&#xe672;" 
d="M944 491l-202 219q-8 8 -20 8h-330q-35 0 -59 -24.5t-24 -58.5v-92q19 -5 31 -19l1 -1l1 -1q16 -21 21 -27v140q0 12 8.5 20.5t20.5 8.5h317v-188q0 -5 3.5 -8.5t9.5 -3.5h173l2 -2v-497q0 -12 -8.5 -20.5t-20.5 -8.5h-476q-12 0 -20.5 8.5t-8.5 20.5v58q-16 -7 -32 -7
h-22v-51q0 -34 24 -58.5t59 -24.5h476q34 0 58.5 24.5t24.5 58.5v508q0 10 -7 18zM735 489v148l137 -148h-137zM331 52q5 0 10 2h2q4 1 7 3h0.5h0.5q13 7 17 20q1 2 1 6l-2 119h133q5 0 9 3q11 6 11 20q0 13 -12 25q-13 13 -187 240q-2 2 -4.5 5.5t-3.5 4.5q-8 10 -21.5 10
t-24.5 -11q-1 0 -1 -1l-200 -254q-8 -8 -8 -17q0 -18 22 -22l10 -1h118v-117q0 -18 12 -28q10 -8 24 -7h65h22v0zM244 89v133q0 7 -5.5 12.5t-12.5 5.5h-118l182 231q141 -184 181 -233h-122q-7 0 -12.5 -5.5t-5.5 -12.5v0l2 -132l-2 1h-87zM590 351h23v37h14v-37h26v-13
h-26v-26q15 3 30 5q-1 -7 -1 -14q-14 -2 -29 -4v-43h-14v41q-20 -3 -41 -7l-2 15q20 3 43 6v27h-39v13q10 21 19 49h-21v13h25q4 14 8 30l16 -3q-5 -14 -9 -27h41v-13h-45q-9 -25 -18 -49zM662 299l9 11q16 -10 31 -20l29 34h-65v13q4 12 7 25h-21v13h25q3 12 6 25h-23v13
h26q4 14 7 29h14q-3 -15 -6 -29h51v-13h-54q-3 -13 -7 -25h68v-13h-71q-4 -13 -7 -25h69v-13l-36 -41q11 -8 22 -15l-10 -13q-30 23 -64 44zM570 50h31v102h16v-102h49v129h-87v15h172v-15h-69v-50h63v-14h-63v-65h77v-15h-189v15z" />
    <glyph glyph-name="holidays" unicode="&#xe634;" 
d="M709 474q5 -2 14 -1l34 -56l18 16v63l27 25l84 -119l35 34l-20 165l47 56q16 22 19 37q0 9 1 21t-10 20.5t-32 3.5q-26 -8 -50 -30l-40 -39l-172 24l-31 -35l118 -85l-21 -29l-68 2l-17 -18l60 -35q-1 -1 -1.5 -2.5t-1 -6t1.5 -6.5zM411 536q-98 0 -181.5 -48.5
t-131.5 -132t-48 -181.5t48 -181.5t131.5 -131.5t181.5 -48t181.5 48t132 131.5t48.5 181.5t-48.5 181.5t-132 132t-181.5 48.5zM411.5 -132q-126.5 0 -216.5 90t-90 216.5t90 216t216.5 89.5t216 -89.5t89.5 -216t-89.5 -216.5t-216 -90zM550 115q0 30 -15 51.5t-38 30.5
q-25 10 -82 23q-28 6 -36 13q-8 9 -8 20q0 31 42 31q29 0 46 -16q5 -5 10 -12v-1l1 -1q2 -3 6 -3h59q8 0 8 7q0 2 -2 8q-24 61 -95 73v34q0 5 -3.5 8.5t-8.5 3.5h-46q-5 0 -8 -3.5t-3 -8.5v-35q-43 -9 -65 -34q-24 -29 -24 -66q0 -32 21.5 -58t107.5 -43q25 -5 35 -12
q13 -9 13 -25q0 -30 -47 -30q-20 0 -35 6q-21 9 -31 30v1v0q-2 4 -7 4h-65q-8 0 -8 -7v-3l1 -1q23 -76 104 -89v-36q0 -5 3 -8t8 -3h46q5 0 8.5 3t3.5 8v36q47 8 74 34q30 28 30 70z" />
    <glyph glyph-name="paid_annual_leave" unicode="&#xe645;" 
d="M766 4l-163 229l-15 -13v-123l-73 -66l-20 32q-33 51 -57 94q-13 1 -23 6l22 47l-45 -26q-8 14 -7 30l-129 76l70 75l129 -4l11 15l-231 167l96 107l333 -47q44 43 67 64q50 47 108 66q63 15 96 -17q36 -34 24 -106q-6 -36 -43 -85l-83 -99l40 -322zM614 329l162 -228
l30 28l-40 317l100 119q26 35 30 56q6 39 -5 49q-8 8 -35 2q-42 -14 -82 -52l-77 -74l-11 -11l-331 47l-25 -28l225 -163l-68 -95l-121 4l98 -58l-11 -22h2l21 2l10 -20q9 -19 38 -66v113zM345 -12q0 30 -15 52t-38 31q-26 10 -82 23q-29 6 -36 13q-9 8 -9 20q0 31 43 31
q29 0 46 -16q6 -5 10 -13v0l1 -1q2 -3 6 -3h60q7 0 7 7q0 2 -2 8q-24 62 -95 73v35q0 4 -3.5 7.5t-8.5 3.5h-46q-5 0 -8.5 -3.5t-3.5 -7.5v-36q-43 -9 -64 -34q-24 -29 -24 -66q0 -33 21.5 -58.5t107.5 -42.5q25 -5 35 -13q13 -9 13 -25q0 -30 -47 -30q-20 0 -35 7
q-21 8 -31 29v1h-1q-2 5 -6 5h-66q-7 0 -7 -8v-3v0q23 -76 104 -90v-36q0 -4 3.5 -7.5t8.5 -3.5h46q5 0 8.5 3.5t3.5 7.5v36q47 8 75 34q29 28 29 70z" />
    <glyph glyph-name="atm" unicode="&#xe6ba;" 
d="M786.5 248q15.5 0 26.5 29.5t11 71t-11 71t-26.5 29.5t-26.5 -29.5t-11 -71t11 -71t26.5 -29.5zM462.5 198q15.5 0 26.5 25.5t11 62t-11 62t-26.5 25.5t-26.5 -25.5t-11 -62t11 -62t26.5 -25.5zM0 323q0 -92 40.5 -175.5t109.5 -144t163.5 -96t198.5 -35.5t198.5 35.5
t163.5 96t109.5 144t40.5 175.5t-40.5 176t-109.5 144t-163.5 95.5t-198.5 35.5h5q-3 2 -11 10q-26 23 -47 37q-85 54 -222 54q-10 0 -17.5 -7.5t-7.5 -18t7.5 -17.5t17.5 -7q123 0 195 -47q3 -2 21 -16.5t34.5 -26t24.5 -11.5q126 0 232.5 -53.5t168 -146t61.5 -201
t-61.5 -201t-168 -146.5t-232.5 -54t-232.5 54t-168 146.5t-61.5 200.5q0 109 63 202.5t172 146.5q9 5 12.5 15t-1 19t-14.5 12.5t-19 -1.5q-121 -59 -192 -164.5t-71 -229.5z" />
    <glyph glyph-name="tongxunlu" unicode="&#xe613;" 
d="M829 172q-13 6 -44 24q-92 55 -159 72q24 37 54 116q12 33 11 94v15q0 8 1 28q3 59 -3 80q-19 70 -68 101q-40 26 -103.5 26t-103.5 -26q-49 -32 -68 -101q-6 -22 -3 -80q1 -20 1 -28v-15q-1 -62 11 -94q31 -80 54 -116q-66 -18 -158 -72q-31 -18 -43 -24
q-30 -14 -53 -31t-33.5 -30t-17 -26t-7.5 -19t-1 -10v-107h845v107q0 4 -1 10t-7.5 19t-17 26t-33.5 30t-53 31zM904 -12h-770v67v0v1v-1q0 3 1 7t7 13t14.5 18t26 21t40.5 22q14 7 47 26q31 18 50.5 28.5t55 25t70.5 20.5l33 7l-23 26q-29 32 -66 129q-9 26 -9 80v15
q0 8 -1 29q-2 53 2 69q14 51 46.5 74.5t89 23.5t89 -23.5t46.5 -74.5q4 -16 2 -69q-1 -21 -1 -29v-16q0 -53 -9 -78q-36 -97 -66 -130l-23 -26l34 -7q34 -6 70 -20t55.5 -24.5t51.5 -29.5t47 -26q23 -10 40.5 -22.5t26.5 -21.5t14.5 -18t6.5 -12.5t2 -6.5v-67z" />
    <glyph glyph-name="fangzi" unicode="&#xe625;" 
d="M61 812q-25 0 -43 -18t-18 -43v-902q0 -25 18 -43t43 -18h902q25 0 43 18t18 43v902q0 25 -18 43t-43 18h-902zM735 268q11 0 18.5 -7.5t7.5 -18.5v-243v-5v-1l-1 -2v-1l-1 -1v-1q-1 -3 -3 -5l-3 -3l-2 -2q-5 -4 -11 -5l-4 -1h-1h-426h-1q-10 1 -17.5 8.5t-7.5 18.5v243
q0 11 7.5 18.5t18.5 7.5t19 -7.5t8 -18.5v-217h373v217q0 11 7.5 18.5t18.5 7.5zM883 279q8 -7 8 -18t-8 -18.5t-18.5 -7.5t-18.5 7l-324 323l-324 -323q-7 -7 -18 -7t-18.5 7.5t-7.5 18.5t7 18l342 341q13 12 29 6q5 -2 9 -6z" />
    <glyph glyph-name="icon1" unicode="&#xe615;" 
d="M737 748h-448q-93 0 -158.5 -65.5t-65.5 -158.5v-449q0 -92 65.5 -158t158.5 -66h448q93 0 158.5 65.5t65.5 158.5v449q0 93 -65.5 158.5t-158.5 65.5zM619 430l-8 -89q39 -17 54 -57.5t-4 -82.5t-69 -62q-42 -16 -98 -7l-58 -150l-0.5 -1.5t-1.5 -4t-3 -4.5t-5.5 -3.5
t-7.5 -1.5q-6 3 -8 8.5t-2 9.5l1 4l28 158q-51 19 -79 54q-25 31 -27.5 66.5t12 62t42.5 42.5t60 13l38 81q-17 11 -29 27.5t-15 38.5t10 45q37 73 150 45q111 -31 107 -112q-2 -37 -28 -57.5t-59 -22.5z" />
    <glyph glyph-name="notebook" unicode="&#xe687;" 
d="M172 590v0h674q12 0 20 -8t8 -20v0v-446q0 -11 -8 -19.5t-20 -8.5h-1h-673q-12 0 -20 8t-8 20v1v445q0 12 8 20t20 8v0zM90 7v0q-12 0 -20 8.5t-8 20t8 19.5t20 8h838q12 0 20 -8t8 -19.5t-8 -20t-20 -8.5h-838v0zM818 534v0h-619v-390h619v390v0z" />
    <glyph glyph-name="tongxunlu1" unicode="&#xe674;" 
d="M795 738h-568q-46 0 -78.5 -32.5t-32.5 -78.5v-86h113v-90h-113v-116h113v-90h-113v-116h113v-90h-113v-86q0 -46 32.5 -79t78.5 -33h568q46 0 78.5 33t32.5 79v674q0 46 -32.5 78.5t-78.5 32.5zM761 58q-2 -1 -4 -1q-8 0 -14 5.5t-8 13.5q-13 67 -65.5 110.5
t-121.5 43.5q-68 0 -121 -43.5t-66 -110.5q-2 -9 -9.5 -14t-16.5 -3.5t-14 9.5t-3 17q13 68 61.5 117.5t115.5 65.5q-37 16 -59.5 49.5t-22.5 74.5q0 56 39.5 96t95.5 40t96 -40t40 -96q0 -41 -23 -74.5t-59 -49.5q67 -16 115.5 -65.5t61.5 -118.5q2 -9 -3.5 -16.5
t-14.5 -9.5zM639 392.5q0 37.5 -26.5 64t-64 26.5t-64.5 -26.5t-27 -64t27 -64.5t64.5 -27t64 27t26.5 64.5z" />
    <glyph glyph-name="zjft" unicode="&#xe656;" horiz-adv-x="1096" 
d="M520 292q-37 11 -56 45t-8 71q13 52 64 68q28 8 53 1q39 -10 58.5 -44.5t9.5 -74.5q-9 -38 -44 -58t-74 -9l-1 0.5t-2 0.5v0v0zM520 887l-8 9l-19 -19l27 -26l247 -248q30 -40 36 -86.5t-16 -95.5q88 96 -2 200l-265 266v0zM520 775l-64 65l-18 -19l82 -83l190 -191
q34 -35 35.5 -87t-25.5 -93q1 1 2.5 2l1.5 1q43 50 43 101t-38 94l-209 210v0zM520 663l-120 120l-18 -18l138 -139l134 -135q28 -29 28 -76t-32 -85q1 0 2.5 0.5t1.5 1.5q31 29 42.5 64t4 64.5t-27.5 48.5l-153 154v0zM520 550l-176 177l-344 -344l254 -252
q-28 35 -35 71.5t4.5 68.5t30.5 58.5t46 50.5q38 37 99.5 66t120.5 41q1 0 3 0.5t3 0.5t4 0.5t4 0.5q18 3 40 -2q5 -1 14 -5l-68 68v0zM520 282q-4 0 -9 3q-2 0 -3 1l12 -12l232 -233l344 343l-254 253q28 -35 35 -71.5t-5 -68.5t-30.5 -58.5t-45.5 -50.5
q-39 -38 -102.5 -67.5t-123.5 -40.5q-2 -1 -8 -1q-18 -3 -42 3v0v0zM520 198l-79 79q-27 29 -27 76.5t32 85.5q-2 -2 -5 -2q-31 -30 -42 -65t-4 -64.5t28 -48.5l273 -274l18 18l-194 195v0zM520 86l-134 135q-34 35 -35.5 87t25.5 93q-1 -1 -2.5 -2l-1.5 -1
q-43 -50 -43 -101t38 -94l274 -275l17 19l-138 139v0zM520 -27l-191 192q-30 39 -36 85.5t16 95.5q-87 -96 2 -200l209 -209l64 -65l19 18l-83 83v0z" />
    <glyph glyph-name="shuangxiu" unicode="&#xe63d;" 
d="M846 721h-668q-36 0 -61.5 -25.5t-25.5 -61.5v-668q0 -36 25.5 -61.5t61.5 -25.5h668q36 0 61.5 25.5t25.5 61.5v668q0 36 -25.5 61.5t-61.5 25.5zM366 24h-70v346q-29 -15 -67 -27v44q86 52 110 189h77q-22 -91 -50 -134v-418zM783 77q-139 122 -134 358h-27v-411h-72
v411h-26q5 -240 -132 -358v58q70 115 67 300h-57v50h148v91h72v-91h156v-50h-64q-3 -183 69 -300v-58z" />
    <glyph glyph-name="iconyclmr" unicode="&#xe68a;" 
d="M287 635h-156q-19 0 -32 -13t-13 -32v-691q0 -19 13 -32t32 -13h759q18 0 31 13t13 32v691q0 19 -13 32t-31 13h-157v90q0 9 -6.5 15.5t-15.5 6.5t-15.5 -6.5t-6.5 -15.5v-90h-357v90q0 9 -6.5 15.5t-16 6.5t-16 -6.5t-6.5 -15.5v-90zM332 591h357v-53q0 -9 6.5 -15.5
t15.5 -6.5t15.5 6.5t6.5 15.5v53h157v-1v-691v0h-759v0v691v1h156v-53q0 -9 6.5 -15.5t16 -6.5t16 6.5t6.5 15.5v53zM455 55q15 -1 26 9l259 260q10 10 10 24t-10 23v1q-10 10 -24 10t-24 -10l-237 -237l-100 99q-9 10 -23 10t-24 -10v0q-10 -10 -10 -24t10 -23l122 -123
q10 -10 25 -9z" />
    <glyph glyph-name="iconyclxz" unicode="&#xe68b;" 
d="M711 539q9 0 16 6.5t7 15.5v164q0 9 -7 16t-16 7t-15.5 -7t-6.5 -16v-164q0 -9 6.5 -15.5t15.5 -6.5zM309 539q9 0 15.5 6.5t6.5 15.5v164q0 9 -6.5 16t-15.5 7t-15.5 -7t-6.5 -16v-164q0 -9 6.5 -15.5t15.5 -6.5zM890 636h-134v-86q0 -14 -10 -23.5t-24 -9.5h-22
q-14 0 -23.5 9.5t-9.5 23.5v86h-313v-86q0 -14 -10 -23.5t-24 -9.5h-22q-14 0 -24 9.5t-10 23.5v86h-134q-18 0 -31 -13t-13 -32v-692q0 -19 13 -32t31 -13h760q18 0 31.5 13t13.5 32v692q0 19 -13.5 32t-31.5 13zM740 323l-259 -260q-8 -8 -20 -9q-18 -5 -32 8l-122 123
q-9 9 -9 23t9 24h1q10 10 23.5 10t23.5 -9l100 -100l238 238q9 10 23 10t24 -10v-1q10 -9 10 -23t-10 -24z" />
    <glyph glyph-name="fasonggeitongshi" unicode="&#xe62f;" 
d="M512 880q-205 0 -350.5 -145.5t-145.5 -350.5t145.5 -350.5t350.5 -145.5t350.5 145.5t145.5 350.5t-145.5 350.5t-350.5 145.5zM269 279l-1 -3v-3q0 -6 -1 -26v-14h-76q0 9 0.5 29t0.5 23q2 6 6.5 10.5t8.5 6.5t12.5 4.5t11.5 4.5q6 2 24.5 10t28.5 12q2 1 7 2.5t7 1.5
q5 4 15 25l6 1q0 5 -4 9t-5 7q0 5 -1 14t-1 14l-7 2q-7 4 -10 38q-1 1 1.5 6t2.5 10q-8 34 0 57t26 29q44 18 71 2l7 -7l10 -2q1 -11 4 -24q-1 0 -1 -2q-6 -10 -5 -18v-6q3 -45 18 -59q0 -3 -1 -7q-2 -9 -5 -14q-1 -2 -5 -4t-5 -4q-2 -4 -2.5 -12t-1.5 -10.5t-5 -7.5t-4 -11
l9 -1q1 -3 2 -5q-15 -6 -43 -18q-22 -10 -29 -13q-4 -1 -14 -5q-13 -5 -20.5 -8t-17.5 -12t-14 -22zM757 200h-471q-1 12 0 40t1 33q2 8 9 14t12.5 9t17 7t16.5 6q8 3 34 14.5t40 17.5q10 3 20 5q7 5 21 34l9 2q-1 7 -6 13t-7 9q-2 25 -3 40q0 -1 -2.5 -0.5t-5 1.5l-2.5 1
q-4 2 -6.5 7t-4 12t-2 12t-1 13.5t-0.5 9.5q-1 2 2.5 9t2.5 13q-10 48 1.5 80.5t35.5 40.5q62 26 100 2l9 -9l15 -2q4 -2 7 -7t4 -9l2 -3q4 -19 4 -48q0 -1 -2 -20.5t-1 -25.5q0 -3 5 -14q6 -12 2 -37q-3 -13 -7 -19q-2 -2 -7.5 -5t-7.5 -7q-2 -5 -3 -16t-2 -15t-6.5 -11
t-6.5 -15q5 -1 13 -2q14 -29 21 -34q10 -2 20 -5q13 -6 39.5 -17.5t34.5 -14.5q4 -2 15.5 -6t17.5 -7t12.5 -9t9.5 -14q0 -5 0.5 -33t0.5 -40zM852 233h-76q-1 6 -1 15v25v3l-1 3q-4 13 -14 22t-17.5 12t-20.5 8q-10 3 -14 5q-11 5 -29 13q-28 12 -43 19l0.5 1.5t0.5 2.5
l7 1q-1 5 -4.5 9t-4.5 7q-2 19 -3 28l-7 2q-7 4 -9 25q3 3 5 6q7 10 10 27q6 30 -3 48l-3 6v0.5v0.5q0 1 -1 1q0 2 1 7q8 15 21 19q44 18 71 2l6 -7l11 -2q2 -1 4.5 -4.5t3.5 -6.5l1 -2q3 -14 3 -34q0 -1 -1.5 -15t-0.5 -18q0 -2 4 -10q4 -9 1 -26q-2 -9 -5 -14q-1 -2 -5 -4
t-6 -4q-1 -4 -1.5 -12t-1.5 -10.5t-5 -7.5t-4 -11q4 -1 9 -1q9 -21 14 -25q3 0 7.5 -1.5l7.5 -2.5q9 -4 28 -12t24 -10q4 -2 12 -4.5t12 -4.5t9 -6.5t7 -10.5q0 -3 0.5 -23t0.5 -29z" />
    <glyph glyph-name="fukuan" unicode="&#xe683;" 
d="M317 523q-10 0 -16.5 6t-6.5 14.5t7 14.5l274 251q6 6 15.5 6t16.5 -6l225 -206q7 -6 7 -15t-7 -15l-48 -44q-7 -6 -16 -6t-16 6t-7 14.5t7 14.5l32 30l-193 177l-258 -236q-7 -6 -16 -6v0zM222 523q-6 0 -12 3q-8 4 -10.5 12.5t2.5 15.5l160 251q4 7 13 9.5t18 -2.5
l133 -69q8 -5 10.5 -13t-2 -15.5t-13.5 -10t-18 1.5l-113 60l-148 -233q-7 -10 -20 -10v0zM839 -20h-685q-47 0 -80.5 30.5t-33.5 73.5v376q0 43 33.5 74t80.5 31h685q48 0 81.5 -31t33.5 -74v-376q0 -43 -33.5 -73.5t-81.5 -30.5v0zM154 523q-28 0 -48 -18.5t-20 -44.5
v-376q0 -26 20 -44t48 -18h685q29 0 49 18t20 44v376q0 26 -20 44.5t-49 18.5h-685v0zM771 189q-38 0 -64.5 24.5t-26.5 59t26.5 59t64.5 24.5t64.5 -24.5t26.5 -59t-26.5 -59t-64.5 -24.5v0zM771 314q-19 0 -32.5 -12.5t-13.5 -29.5t13.5 -29.5t32.5 -12.5t32.5 12.5
t13.5 29.5t-13.5 29.5t-32.5 12.5v0zM771 314z" />
    <glyph glyph-name="icon" unicode="&#xe678;" 
d="M227 333l42 -32l-14 -232h61l10 198h26l12 -198h57l-9 232l-5 142l139 2l30 52l-156 8h-70l5 -9l-7 -14l15 -107l-23 -23v-2l-1 1l-1 -1v2l-23 23l15 107l-7 14l5 9h-69zM340 654q-27 0 -46.5 -19.5t-19.5 -46.5t19.5 -46.5t47 -19.5t46.5 19.5t19 46.5t-19 46.5
t-47 19.5v0zM486 366l65 22l4 -2l46 -29l37 108l6 16l12 -13l34 -36l50 86l18 -11l-57 -98l-7 -12l-10 10l-32 34l-36 -103l-4 -13l-11 8l-53 32l-55 -19zM497 105h203v-36h-203v36zM625 221v-105h-58v105h-109v42h343v331h-360v42h402v-415h-218z" />
    <glyph glyph-name="jiekuan" unicode="&#xe60e;" 
d="M61 353h29v-286h-29v286zM616 250l-270 109q-13 5 -26 4v1l-2 -1h-5l-149 -20v0v0v-276h29v251l130 17q6 0 11 -2l273 -110q11 -5 16 -15.5t0 -21.5v0q-4 -10 -15 -14.5t-22 0.5l-165 66v-31l153 -62q23 -9 45 0t31 30v0q9 22 -1 44t-33 31zM193 95h94v-28h-94v28z
M952 292v0q-17 29 -50 38t-62 -8l-206 -119l-6 -37l226 131q19 11 40.5 5.5t32.5 -24.5v0q11 -20 5 -41t-25 -32l-283 -164q-18 -10 -37 -6l-3 -29q28 -5 54 10l284 164q29 17 38 49.5t-8 62.5zM584 6l-297 61v28l300 -60zM410 603h368v-29h-368v29zM410 501h368v-29h-368
v29zM580 599h28v-266h-28v266zM580 599l152 152l20 -20l-152 -152zM588 579l-152 152l20 20l152 -152z" />
    <glyph glyph-name="gonggao" unicode="&#xe611;" 
d="M587 355h165v-62h-165v62zM901 579h-777q-10 0 -17 -8.5t-7 -21.5v-308q0 -12 7 -20.5t17 -8.5h777q10 0 17 8.5t7 20.5v308q0 13 -7 21.5t-17 8.5zM211 407q66 55 99 129l24 -10q-40 -84 -104 -138q-8 10 -19 19zM456 253q-9 14 -18 29q-99 -5 -161 -10q-11 -1 -27 -5
l-14 25q14 6 25 17q35 40 76 119l26 -11q-37 -64 -79 -120q62 2 140 6q-17 26 -38 55l20 12q43 -56 73 -102zM492 392q-83 57 -112 139l22 9q29 -78 108 -124q-8 -9 -18 -24zM776 256h-24v16h-165v-16h-24v121h213v-121zM815 409h-293v22h142v49h-80q-13 -24 -27 -43
q-10 6 -22 14q33 43 49 93l24 -7q-6 -18 -14 -35h70v48h25v-48h104v-22h-104v-49h126v-22z" />
    <glyph glyph-name="cizhicitui" unicode="&#xe64d;" 
d="M789 293l-56 -56l-56 56l-22 -22l56 -56l-56 -56l22 -22l56 56l56 -56l22 22l-56 56l56 56zM733 384q-70 0 -119.5 -49.5t-49.5 -119.5t49.5 -119.5t119.5 -49.5t119.5 49.5t49.5 119.5t-49.5 119.5t-119.5 49.5zM733 85q-54 0 -92 38t-38 92t38 92t92 38t92 -38t38 -92
t-38 -92t-92 -38zM434 7q-63 0 -105.5 3.5t-83.5 15t-62 36t-22 62.5q-3 109 79 184.5t194 75.5q75 0 141 -38l26 35q-31 18 -66 29q49 27 78 75.5t29 106.5q0 86 -61 147t-147 61t-147 -61t-61 -147q0 -58 29 -106.5t78 -75.5q-94 -30 -152.5 -107t-58.5 -178
q0 -73 47 -110q54 -42 125 -47h265q9 0 23.5 1t48 9t53.5 21q1 2 10 8l-56 23q-58 -23 -204 -23zM265 592q0 70 49.5 119.5t119.5 49.5t119.5 -49.5t49.5 -119.5q0 -64 -41.5 -111.5t-103.5 -55.5h-24h-24q-62 9 -103.5 56t-41.5 111z" />
    <glyph glyph-name="zuzhijiagou" unicode="&#xe63c;" 
d="M153 698zM267 398h231v-194q0 -6 4 -10t10 -4v0q6 0 10 4t4 10v194h231v-208q0 -6 4 -10.5t10 -4.5v0q6 0 10.5 4.5t4.5 10.5v213q0 10 -7 17t-17 7h-236v107q0 6 -4 10t-10 4v0q-6 0 -10 -4t-4 -10v-107h-236q-10 0 -17 -7t-7 -17v-213q0 -6 4.5 -10.5t10.5 -4.5v0
q6 0 10 4.5t4 10.5v208v0zM325 207h-144q-6 0 -10.5 -4t-4.5 -10v-140q0 -6 4.5 -10t10.5 -4h144q6 0 10 4t4 10v140q0 6 -4 10t-10 4v0zM584 207h-144q-6 0 -10 -4t-4 -10v-140q0 -6 4 -10t10 -4h144q6 0 10 4t4 10v140q0 6 -4 10t-10 4v0zM843 207h-144q-6 0 -10 -4
t-4 -10v-140q0 -6 4 -10t10 -4h144q6 0 10.5 4t4.5 10v140q0 6 -4.5 10t-10.5 4v0zM397 528h230q6 0 10.5 4t4.5 10v173q0 6 -4.5 10t-10.5 4h-230q-6 0 -10.5 -4t-4.5 -10v-173q0 -6 4.5 -10t10.5 -4v0z" />
    <glyph glyph-name="dingpiao" unicode="&#xe619;" 
d="M808 241l-120 -122l-52 55q-12 12 -23.5 0.5t-0.5 -23.5l65 -67v0v0q1 -1 3 -2q1 0 1.5 -0.5l0.5 -0.5q3 -2 6.5 -2t6.5 2l0.5 0.5l0.5 0.5q3 1 4 2v0v0l131 134q12 11 0 23q-5 5 -11.5 5t-11.5 -5zM720.5 416q-97.5 0 -166.5 -69t-69 -167t69 -167t166.5 -69t166.5 69
t69 167t-69 167t-166.5 69zM721 -18q-81 0 -138.5 58t-57.5 139.5t57.5 139.5t138.5 58t138.5 -58t57.5 -139.5t-57.5 -139.5t-138.5 -58zM455 184l-102 -87q-4 7 -10.5 17.5t-16.5 33t-8 32t12 25.5t18 26l9 11q2 -1 5.5 -1.5t13 -1.5t17.5 -1.5t16 0.5t11 4q10 8 10 61
q45 27 68 28h4q30 44 74 73l-17 19l177 150l25 -30l-135 -113q39 14 81 16l79 67l25 -30l-48 -40q47 -7 88 -30l54 45q29 25 8 62q-21 -9 -36 9q-16 19 -2 39l-11 14q-23 -11 -38.5 8t-1.5 39l-12 14q-22 -11 -38 8t-1 39l-12 14q-22 -11 -38 8t-1 40l-12 13q-22 -10 -38 9
q-15 18 -2 38q-30 29 -56 7l-531 -448q-14 -12 -15.5 -24.5t4 -21.5t18.5 -24l222 -267q10 -12 15.5 -17t13.5 -11t16 -4.5t17 8.5l96 82q-15 42 -15 88v4zM686 632l25 -30l-177 -149l-25 30zM637 692l24 -30l-177 -149l-24 29zM270 309q-19 23 -16.5 53t25 49t52 16.5
t49 -25.5t16.5 -52.5t-25.5 -49t-52 -17t-48.5 25.5z" />
    <glyph glyph-name="wode" unicode="&#xe606;" 
d="M778 208l-142 55q-27 10 -37 21q-10 10 -1 42q2 5 22.5 35t38.5 69t18 71q0 86 -49 146.5t-118.5 60.5t-118.5 -60.5t-49 -146.5q0 -24 10.5 -54.5t22.5 -51t25.5 -42t14.5 -22.5q6 -12 5.5 -26t-5.5 -20q-5 -5 -16 -10t-20 -8l-9 -3l-127 -57q-23 -8 -38.5 -28
t-15.5 -43v-15q0 -25 18 -40.5t45 -15.5h215h73h228q27 0 45 15.5t18 40.5v15q0 24 -15 43.5t-38 28.5v0v0zM674 145z" />
    <glyph glyph-name="shouye" unicode="&#xe63f;" 
d="M817 612v95q0 13 -9.5 22t-22.5 9t-22 -9t-9 -22v-95q0 -69 -39.5 -127.5t-104.5 -86.5q-19 -8 -19 -28.5t19 -28.5q65 -29 104.5 -87t39.5 -128v-74q0 -13 9 -22t22 -9t22.5 9t9.5 22v74q0 73 -35 137.5t-96 105.5q61 42 96 106.5t35 136.5zM414 398q-66 28 -105 86.5
t-39 127.5v95q0 13 -9.5 22t-22.5 9t-22 -9t-9 -22v-95q0 -72 34.5 -136.5t95.5 -106.5q-61 -41 -95.5 -105.5t-34.5 -137.5v-74q0 -13 9 -22t22 -9t22.5 9t9.5 22v74q0 70 39 128t105 87q19 8 19 28.5t-19 28.5zM137 769h750q13 0 22 9t9 22t-9 22t-22 9h-750q-13 0 -22 -9
t-9 -22t9 -22t22 -9zM887 -2h-750q-13 0 -22 -9t-9 -22t9 -22t22 -9h750q13 0 22 9t9 22t-9 22t-22 9zM390 679q-13 0 -22 -9.5t-9 -22.5v-30q0 -13 9 -22t22 -9t22 9t9 22v30q0 13 -9 22.5t-22 9.5zM634 679q-13 0 -22.5 -9.5t-9.5 -22.5v-30q0 -13 9.5 -22t22.5 -9t22 9
t9 22v30q0 13 -9 22.5t-22 9.5zM589 537q-11 7 -23.5 4.5t-19.5 -13.5q-14 -19 -34 -19q-21 0 -34 19q-7 11 -19.5 14t-23.5 -4t-13.5 -19.5t3.5 -23.5q11 -18 34 -33.5t52.5 -15.5t52.5 15.5t34 32.5q7 11 4.5 23.5t-13.5 19.5zM350 96q10 0 18 6q6 4 18.5 11t49.5 18
t75 11t75.5 -11t50 -18t19.5 -11q11 -8 23.5 -5.5t20 13t5 23.5t-12.5 20q-10 6 -25.5 15t-62 22.5t-93.5 13.5t-93 -13.5t-61.5 -22.5t-24.5 -15q-11 -8 -13 -20.5t6 -23.5q9 -13 25 -13z" />
    <glyph glyph-name="jian" unicode="&#xe608;" 
d="M129 416h766v-64h-766v64zM480 767h64v-766h-64v766z" />
    <glyph glyph-name="apply" unicode="&#xe60f;" 
d="M849 -113h-676q-13 0 -23 10t-10 23v780q0 14 10 24t23 10h52q7 0 7 -7.5t-7 -7.5h-52q-7 0 -13 -5.5t-6 -13.5v-780q0 -7 6 -12.5t13 -5.5h676q8 0 13.5 5.5t5.5 12.5v780q0 8 -5.5 13.5t-13.5 5.5h-52q-7 0 -7 7q0 3 2.5 5.5t4.5 2.5h52q14 0 24 -10t10 -24v-780
q0 -13 -10 -23t-24 -10zM693 667h-364q-14 0 -22 10.5t-4 23.5l13 54q3 13 14.5 22t24.5 9h52q9 0 16.5 5.5t9.5 13.5l13 54q3 13 14.5 22t24.5 9h52q14 0 25 -9t15 -22l13 -54q2 -8 9.5 -13.5t15.5 -5.5h52q13 0 24.5 -9t15.5 -22l13 -54q3 -13 -4.5 -23.5t-22.5 -10.5z
M355 771q-8 0 -15.5 -5.5t-9.5 -13.5l-13 -54q-2 -7 1.5 -11.5t10.5 -4.5h364q8 0 11.5 4.5t1.5 11.5l-13 54q-2 8 -9.5 13.5t-16.5 5.5h-52q-13 0 -24.5 9t-14.5 22l-13 54q-2 8 -9.5 13.5t-16.5 5.5h-52q-8 0 -15.5 -5.5t-9.5 -13.5l-13 -54q-4 -13 -15 -22t-25 -9h-52z
M693 511h-364q-7 0 -7 7.5t7 7.5h364q8 0 8 -7.5t-8 -7.5zM693 407h-364q-7 0 -7 7q0 3 2 5.5t5 2.5h364q8 0 8 -8q0 -2 -2.5 -4.5t-5.5 -2.5zM693 303h-364q-7 0 -7 7.5t7 7.5h364q8 0 8 -7.5t-8 -7.5zM693 199h-364q-7 0 -7 7.5t7 7.5h364q8 0 8 -8q0 -2 -2.5 -4.5
t-5.5 -2.5zM693 95h-364q-7 0 -7 7.5t7 7.5h364q8 0 8 -8q0 -2 -2.5 -4.5t-5.5 -2.5z" />
    <glyph glyph-name="weihu" unicode="&#xe617;" 
d="M980 620q-9 12 -24 12q-9 0 -18 -5.5t-31 -23.5q-74 -61 -102 -66q-5 -1 -11 -1q-24 0 -54 11t-49 30q-20 21 -28 53.5t-5 55.5q6 35 60 98q7 9 10 13l7.5 10t5.5 10.5t1 10t-3 11.5q-8 17 -28 17h-6q-27 -5 -90.5 -39t-85.5 -76q-45 -87 -27 -173l0.5 -1t0.5 -2
l-386 -387q-44 -44 -50 -101q-7 -60 32 -100q33 -33 84 -33q66 0 117 51l385 387q5 0 18 -1q22 -1 36 -1q76 0 125 28q80 47 119 180q1 3 1 4q5 16 -4 28v0zM186.5 22q-18.5 0 -31.5 13t-13 31.5t13 32t31.5 13.5t31.5 -13.5t13 -32t-13 -31.5t-31.5 -13zM835 458
q-36 -21 -96 -21q-12 0 -33 1q-15 1 -21 1q-23 0 -34 -11l-363 -364v1v2q0 42 -29.5 71.5t-70.5 29.5l363 365q14 14 7 47q-4 18 -5 31.5t4.5 42.5t22.5 61q10 20 47 44q-20 -34 -25 -64q-5 -33 6 -79t43 -78q27 -29 68 -44t75 -15q12 0 21 2q32 6 79 39q-26 -43 -59 -62z
M686 280q-9 8 -20.5 8t-20.5 -9l-79 -80q-8 -8 -8 -20t9 -20l218 -215q33 -32 74 -32q34 0 56 22q25 25 21.5 63t-32.5 67l-218 216v0zM875 -26q-6 -6 -16 -6q-18 0 -34 16l-198 195l39 40l198 -195q13 -13 15.5 -28.5t-4.5 -21.5v0zM174 610l153 -154l63 63l-153 153
l-35 66l-101 73l-66 -64l73 -103z" />
    <glyph glyph-name="yingpinjilu" unicode="&#xe63a;" 
d="M851 -66h-678q-28 0 -47.5 19t-19.5 45v772q0 26 19.5 45t47.5 19h678q28 0 47.5 -19t19.5 -45v-772q0 -26 -19.5 -45t-47.5 -19zM173 788q-9 0 -15 -5.5t-6 -12.5v-772q0 -7 6 -12.5t15 -5.5h678q9 0 15 5.5t6 12.5v772q0 7 -6 12.5t-15 5.5h-678zM464 174h-245
q-10 0 -17 7t-7 16.5t7 16.5t17 7h245q10 0 16.5 -7t6.5 -16.5t-6.5 -16.5t-16.5 -7zM604 407h-385q-10 0 -17 7t-7 16.5t7 16.5t17 7h385q10 0 16.5 -7t6.5 -16.5t-6.5 -16.5t-16.5 -7zM807 640h-589q-9 0 -16 7t-7 16.5t7 16t16 6.5h589q10 0 17 -6.5t7 -16t-7 -16.5
t-17 -7zM826 208l-107 110q-6 6 -15 6t-15 -6.5t-6 -15.5t6 -15l64 -66h-214q-10 0 -16.5 -7t-6.5 -16.5t6.5 -16.5t16.5 -7h224l-74 -76q-6 -6 -6 -15t6 -15.5t15 -6.5t15 6l107 110q6 6 6 15.5t-6 15.5z" />
    <glyph glyph-name="abgangzhuanban" unicode="&#xe76c;" 
d="M66 96v38q2 16 20 27q35 21 61 34q4 2 62 26q-23 47 -25 52q-5 13 -7 35v44q0 22 13 38.5t35 21.5q25 5 50 -1q21 -6 33.5 -25.5t10.5 -43.5q-2 -13 -1 -15q5 -49 -35 -107q6 -2 7 -2q46 -17 49 -18q11 -5 57 -29q8 -5 16 -11q20 -15 18 -36v-28h-364zM350 118v32h-80
v-32h80zM812 219q19 -3 36.5 -10t42 -20t32.5 -17.5t20 -12.5q18 -15 16 -36v-27h-162q-6 31 -8 39q0 2 3 7q2 3 13 19q-17 19 -28 19t-29 -19l4 -6q9 -8 11 -16t-2 -23.5t-4 -16.5q-1 -3 -5 -3h-156v41q1 7 12 18q7 8 19 15q38 20 55 28q4 2 56 23q-22 47 -25 53
q-5 11 -6 25q-1 23 -1 51q0 27 16 44.5t42 18.5q22 2 38 -2q20 -4 32.5 -20.5t12.5 -36.5q1 -33 0 -50q-2 -31 -29 -76q-1 -2 -3 -4.5t-3 -4.5zM330 591q22 15 169 114v-67q52 -11 56 -12q66 -18 103 -56q36 -38 37 -91q-22 25 -23 26q-36 35 -95 42q-5 0 -77 5v-76
q-67 45 -170 115z" />
    <glyph glyph-name="hukou" unicode="&#xe600;" 
d="M512 832q-91 0 -174 -35.5t-143 -95.5t-95.5 -143t-35.5 -174t35.5 -174t95.5 -143t143 -95.5t174 -35.5t174 35.5t143 95.5t95.5 143t35.5 174t-35.5 174t-95.5 143t-143 95.5t-174 35.5zM512 -53q-89 0 -169.5 35t-139 93.5t-93.5 139t-35 169.5t35 169.5t93.5 139
t139 93.5t169.5 35t169.5 -35t139 -93.5t93.5 -139t35 -169.5t-35 -169.5t-93.5 -139t-139 -93.5t-169.5 -35zM415 220h23v11h85v-11h23v134h-131v-134zM438 333h85v-81h-85v81zM441 441h85v-8h21v79h-48q-8 16 -11 23l-23 -7q3 -6 7 -16h-51v-52q0 -36 -16 -58q7 -7 16 -18
q17 21 20 57zM442 492h84v-30h-84v30zM646 630h-268q-19 0 -32 -13t-13 -32v-402q0 -19 13 -32t32 -13h268q19 0 32 13t13 32v402q0 19 -13 32t-32 13zM602 160h-202q-18 0 -31.5 13t-13.5 32v358q0 19 13.5 32t31.5 13h202v-448zM669 205q0 -19 -13.5 -32t-31.5 -13v448
q18 0 31.5 -13t13.5 -32v-358z" />
    <glyph glyph-name="tianjia" unicode="&#xe7d6;" 
d="M512 90q10 0 18 8t8 17v243h243q9 0 17 8t8 18t-8 18t-17 8h-243v243q0 9 -8 17t-18 8t-18 -8t-8 -17v-243h-243q-9 0 -17 -8t-8 -18t8 -18t17 -8h243v-243q0 -9 8 -17t18 -8v0zM429 819h166q10 0 18 8t8 17.5t-8 17.5t-18 8h-166q-10 0 -18 -8t-8 -17q0 -26 26 -26v0z
M51 608q10 0 18 8t8 18v115q0 28 19.5 46t44.5 18h115q10 0 18 8t8 17.5t-8 17.5t-18 8h-109q-48 0 -81.5 -33.5t-33.5 -81.5v-115q-5 -10 2 -18t17 -8v0zM51 275q10 0 18 8t8 18v166q0 10 -8 18t-17.5 8t-17.5 -8t-8 -18v-166q0 -10 8 -18t17 -8v0zM262 -51h-115
q-28 0 -46 19.5t-18 44.5v115q0 10 -8 18t-17.5 8t-17.5 -8t-8 -18v-115q0 -48 33.5 -81.5t81.5 -33.5h115q10 0 18 8t8 17q0 26 -26 26v0zM595 -51h-166q-10 0 -18 -8t-8 -17.5t8 -17.5t18 -8h166q10 0 18 8t8 17q0 26 -26 26v0zM973 160q-10 0 -18 -8t-8 -18v-115
q0 -28 -19.5 -46t-44.5 -18h-115q-10 0 -18 -8t-8 -17.5t8 -17.5t18 -8h115q48 0 81.5 33.5t33.5 81.5v115q0 10 -8 18t-17 8v0zM973 493q-10 0 -18 -8t-8 -18v-166q0 -10 8 -18t17.5 -8t17.5 8t8 18v166q0 10 -8 18t-17 8v0zM877 870h-115q-10 0 -18 -8t-8 -17.5t8 -17.5
t18 -8h115q28 0 46 -19.5t18 -44.5v-115q0 -10 8 -18t17.5 -8t17.5 8t8 18v109q5 47 -31 84t-84 37v0z" />
    <glyph glyph-name="home_news" unicode="&#xe604;" 
d="M908 184l-80 106v199q0 140 -88 236q-50 55 -119 80q-6 38 -34 63q-31 28 -75 28t-75 -28q-28 -26 -34 -63q-69 -25 -119 -80q-87 -96 -87 -236v-198l-80 -106q-17 -18 -17 -43v-52q0 -27 18.5 -45.5t45.5 -18.5h696q27 0 45.5 18.5t18.5 45.5v52q0 25 -16 42v0zM546 822
q-28 2 -34 2q-8 0 -34 -2q12 18 35.5 17t32.5 -17v0zM165 90l-1 51l80 106q17 18 17 43v199q0 115 71 192q33 37 78 57q47 21 102 21t102 -21q45 -20 79 -57q70 -77 70 -192v-199q0 -25 16 -42l81 -106v-51l-695 -1v0zM592 -2q-8 -17 -21 -29q-24 -22 -58.5 -22t-58.5 22
q-14 12 -21 29h-68q11 -46 45 -77q43 -40 102 -40t102 40q35 31 46 77h-68z" />
    <glyph glyph-name="shen" unicode="&#xe67c;" horiz-adv-x="1756" 
d="M914 627h318q0 -16 -2 -39t-2 -32q0 -46 4 -70h-65v85h-590v-99h-65q0 15 2 39.5t2 35.5q0 52 -4 80h327q-13 45 -42 89q33 6 75 23q35 -78 42 -112v0zM848 538h71q0 -15 -2.5 -42t-2.5 -38h248q0 -19 -2.5 -81t-2.5 -106q0 -136 5 -178h-61v33h-187q0 -122 5 -169h-71
q0 21 2.5 77.5t2.5 91.5h-182v-38h-61q0 10 2.5 67.5t2.5 105.5q0 150 -5 192h248q-10 47 -10 85v0zM853 322v85h-182v-85h182v0zM853 182v84h-182v-84h182v0zM1101 322v85h-187v-85h187v0zM1101 182v84h-187v-84h187v0z" />
    <glyph glyph-name="wodejiaqi" unicode="&#xe697;" 
d="M827 305l-7 3l6 5q33 26 51.5 63t18.5 79q0 75 -53.5 128t-129 53t-129 -53t-53.5 -128q0 -42 18 -79t52 -63l6 -5l-7 -3q-88 -35 -141 -112t-53 -171v-62q0 -11 8 -18.5t19 -7.5h560q11 0 19 7.5t8 18.5v62q0 94 -52.5 171t-140.5 112zM584 455q0 53 38 90.5t91 37.5
t91 -37.5t38 -90.5t-38 -90.5t-91 -37.5t-91 37.5t-38 90.5zM967 -13h-507v35q0 104 74 178t179 74t179.5 -74t74.5 -178v-35zM353 445l-129 -129l42 -31l144 144v231h-57v-215zM69 392q-28 128 43 238q35 54 86.5 89.5t113.5 48.5q33 7 67 7q63 0 122.5 -25t103.5 -70
l63 22q-54 63 -130.5 99t-158.5 36q-40 0 -80 -9q-74 -16 -135.5 -58.5t-102.5 -106.5q-85 -131 -52 -284q24 -112 105 -191.5t193 -101.5l39 57q-103 10 -179.5 78t-97.5 171z" />
    <glyph glyph-name="tongxunlu-copy" unicode="&#xe661;" 
d="M814 824q31 0 53 -22t22 -53v-719q0 -31 -22 -53t-53 -22h-606q-31 0 -52.5 22t-21.5 53v48h121v183h-122v37h121v183h-121v36h121v184h-121v48q0 31 22 53t53 22h606zM814 867h-606q-49 0 -83.5 -34.5t-34.5 -83.5v-92h121v-96h-122v-124h122v-96h-122v-124h122v-96
h-122v-92q0 -49 35 -83.5t84 -34.5h605q50 0 84.5 34.5t34.5 83.5v720q0 49 -34.5 83.5t-83.5 34.5v0zM797 166q-14 73 -66 126.5t-123 70.5q39 17 63 52.5t24 79.5q0 60 -42.5 102.5t-102.5 42.5t-102 -42.5t-42 -102.5q0 -44 24 -79.5t63 -52.5q-71 -17 -122.5 -70
t-66.5 -126q-2 -10 4 -18t16 -10q9 -2 17 3.5t10 15.5q14 71 70.5 117.5t129.5 46.5t129.5 -46.5t69.5 -118.5q4 -19 24 -19q2 0 4 1q9 1 15 9.5t4 17.5zM454 495.5q0 40.5 28.5 69t68.5 28.5t68.5 -28.5t28.5 -69t-28.5 -69t-68.5 -28.5t-68.5 28.5t-28.5 69z" />
    <glyph glyph-name="tianxieziliao" unicode="&#xe614;" 
d="M512 -128q-139 0 -257 68.5t-186.5 186.5t-68.5 257t68.5 257t186.5 186.5t257 68.5t257 -68.5t186.5 -186.5t68.5 -257t-68.5 -257t-186.5 -186.5t-257 -68.5zM772.5 691.5q-19.5 19.5 -46.5 19.5t-47 -20l-11 -11l-18 -18l-321 -321l-47 -140l140 47l316 315l10 10
l25 25q19 19 19 46.5t-19.5 47zM793 54h-430q-6 0 -11 4.5t-5 11.5t5 12t11 5h331q20 0 34.5 14.5t14.5 35t-14.5 35t-34.5 14.5h-413q-7 0 -12 -5t-5 -12t5 -11.5t12 -4.5h413q7 0 11.5 -5t4.5 -12t-4.5 -11.5t-11.5 -4.5h-331q-20 0 -34.5 -14.5t-14.5 -35t14.5 -35
t34.5 -14.5h430q7 0 11.5 4.5t4.5 11.5t-4.5 12t-11.5 5zM738 610l-47 46l12 12q9 10 23 10t23.5 -9.5t9.5 -23.5t-10 -24zM399 271l-23 23l-24 24l316 315l46 -47z" />
    <glyph glyph-name="chucha" unicode="&#xe60b;" 
d="M182 875q32 9 112 9q64 0 247.5 0.5t248.5 -0.5q87 -3 153 -69t69 -153q1 -93 0.5 -248t-0.5 -248q1 -15 0.5 -32.5t-1.5 -32.5t-4.5 -32t-8.5 -31q-24 -68 -86 -111.5t-134 -42.5q-513 1 -543 1q-87 2 -153.5 68t-68.5 154q-1 90 0 542q-2 77 46.5 141.5t122.5 84.5z
M705 635q-58 -60 -130 -131q-47 8 -146.5 22.5t-150.5 23.5q-14 -12 -42 -34q32 -20 108.5 -64t115.5 -70q-38 -37 -79 -79q-20 -2 -55 -3t-63.5 -4t-53.5 -11q92 -44 146 -81q17 -26 43 -76t36 -67q6 24 9 50t4.5 62t2.5 51q44 44 159.5 161.5t179.5 180.5q0 8 -1.5 16
t-6.5 16t-9 12.5t-12 13t-10 11.5h-45zM549 295q91 -173 106 -203q16 15 32 36q-14 113 -26 271q-21 -19 -59.5 -55t-52.5 -49z" />
    <glyph glyph-name="xunlianpeiyang" unicode="&#xe68e;" 
d="M887 773q30 0 51 -21.5t21 -52.5v-467l24 25h-847q-30 0 -51 21.5t-21 52.5v466l-24 -24h847zM16 822v-491q0 -52 35.5 -87.5t85.5 -35.5h871v491q0 51 -35.5 87t-85.5 36h-871zM196 -69q-7 -7 -6.5 -17t8 -17t17.5 -7t17 8l219 242q6 8 5.5 18t-7.5 17t-17 6.5t-17 -8.5
zM798 -102q7 -8 17 -8t17.5 6.5t7.5 17t-6 17.5l-219 242q-7 8 -17 8.5t-17.5 -6.5t-8 -17t6.5 -18zM442 792q0 -8 7 -13.5t17 -5.5t17 5.5t7 13.5v85q0 8 -7 13.5t-17 5.5t-17 -5.5t-7 -13.5v-85zM515 588q10 0 17 7.5t7 17.5t-7 17.5t-17 7.5h-356q-10 0 -17 -7.5
t-7 -17.5t7 -17.5t17 -7.5h356zM515 430q10 0 17 7.5t7 17.5t-7 17t-17 7h-356q-10 0 -17 -7t-7 -17t7 -17.5t17 -7.5h356zM680 343q78 62 78 174v162q0 10 -7 17t-17 7t-17 -7t-7 -17v-162q0 -88 -59 -135q-17 -14 -41 -23q-13 -5 -17 -6q-10 -2 -15.5 -10.5t-3.5 -18.5
t10 -15.5t18 -3.5q40 8 78 38zM753 663q6 8 5 18t-8.5 16.5t-17.5 6t-17 -8.5l-109 -135q-7 -7 -6 -17.5t8.5 -17t17.5 -5.5t17 9zM753 694q-7 8 -17 9t-18 -6q-7 -6 -8 -16t5 -18l110 -135q6 -8 16 -9t18 6t9 17t-6 18z" />
    <glyph glyph-name="shenpi1" unicode="&#xe627;" 
d="M0 896h1024v-1024h-1024v1024zM320 149h384v-42h-384v42zM717 321h-162v126q28 12 48 42t20 61q0 46 -32.5 78.5t-78.5 32.5v0v0q-46 0 -79 -32.5t-33 -78.5q0 -31 20.5 -61t48.5 -42v-126h-162q-21 0 -36 -15.5t-15 -36.5v0v-76h512v76v0q0 22 -15 37t-36 15z" />
    <glyph glyph-name="weihu1" unicode="&#xe69f;" 
d="M911 605l-46 -46q-37 -37 -88.5 -37t-88.5 37t-37 89t37 89l46 46q20 19 8 36t-45 12q-31 -5 -68 -24t-59 -41q-28 -28 -47.5 -75.5t-19.5 -87.5q0 -24 5 -47l-385 -386q-15 -15 -25.5 -41.5t-10.5 -48t10.5 -47.5t26 -41t41 -26t47 -11t47.5 11t41 26l385 386
q23 -5 47 -5q82 0 148.5 57t78.5 137q5 34 -12 46t-36 -8zM241 51q-12 -12 -29 -12t-29.5 12.5t-12.5 29.5t12 30q12 11 29 11t29.5 -12.5t12.5 -29.5t-12 -29zM200 597l144 -145l60 59l-145 145l-33 63l-103 74l-59 -59l74 -104zM684 289q-6 6 -14.5 6t-14.5 -6l-89 -89
q-6 -6 -6 -15t6 -15l209 -209q24 -25 59 -25t59.5 24.5t24.5 59.5t-25 59z" />
    <glyph glyph-name="feiyongbaoxiao" unicode="&#xe648;" 
d="M118 896v-1023h838v1023h-838zM896 -66h-711v901h711v-901zM416 603h38q-2 -31 -2 -95q30 0 62 2v-32q-42 2 -62 2v-69q30 9 60 19q-2 -14 0 -31q-30 -7 -60 -16v-117q0 -29 -16 -38t-57 -14q-5 20 -19 33q34 0 46 4.5t12 19.5v102q-61 -19 -72 -25q-10 21 -19 36
q33 5 91 21v75q-44 0 -78 -2v32q28 -2 78 -2q0 60 -2 95zM564 217h-35q1 41 1 84v199q0 44 -1 82h196q0 -49 -6 -91q-5 -20 -19 -27.5t-69 -10.5q-3 20 -11 33q52 -1 59.5 7t7.5 60h-123v-113h176q-2 -14 -17 -56q-15 -44 -41 -81q39 -37 93 -61q-15 -13 -30 -28
q-63 38 -84 63q-24 -30 -73 -63q-5 13 -22 27q41 21 69 57q-41 58 -56 115l-15 -2v-194zM658 328q24 33 35 83h-80q18 -55 45 -83zM253 247q0 -11 -9 -19t-22 -8h-146q-12 0 -21 8t-9 19t9 19t21 8h146q13 0 22 -8t9 -19zM253 524q0 -11 -9 -19t-22 -8h-146q-12 0 -21 8
t-9 19t9 19t21 8h146q13 0 22 -8t9 -19zM253 524q0 -11 -9 -19t-22 -8h-146q-12 0 -21 8t-9 19t9 19t21 8h146q13 0 22 -8t9 -19zM253 247q0 -11 -9 -19t-22 -8h-146q-12 0 -21 8t-9 19t9 19t21 8h146q13 0 22 -8t9 -19z" />
    <glyph glyph-name="gonggaoguanli" unicode="&#xe612;" 
d="M909 -128h-794q-27 0 -45.5 17.5t-18.5 41.5v503q0 24 18.5 41.5t45.5 17.5h23l315 272q-4 10 -5 21q0 24 18.5 41.5t45 17.5t45 -17.5t18.5 -41.5q0 -10 -4 -21l314 -272h24q26 0 44.5 -17.5t18.5 -41.5v-503q0 -24 -18.5 -41.5t-44.5 -17.5zM538 733q-13 -6 -26 -6
t-27 6l-277 -240h607zM909 434h-794v-503h794v503zM305 227q20 0 34 -13t14 -31q0 -19 -14 -32t-33.5 -13t-33.5 13t-14 32q0 18 14 31t33 13v0zM512 227q20 0 33.5 -13t13.5 -31.5t-13 -31.5q-15 -13 -34.5 -13t-33.5 13t-14 32q0 18 14 31t34 13v0zM718 227q20 0 34 -13
t14 -31q0 -19 -14 -32t-33.5 -13t-33.5 13t-14 32q0 18 14 31t33 13v0z" />
    <glyph glyph-name="tongshiquanxiaozu" unicode="&#xe659;" 
d="M789 896h-560q-95 0 -162 -67t-67 -162v-566q0 -95 67 -162t162 -67h560q95 0 162 67t67 162v566q0 95 -67 162t-162 67zM699.5 489q33.5 0 58 -24.5t24.5 -58t-24.5 -58t-58 -24.5t-58 24.5t-24.5 58t24.5 58t58 24.5zM401 699q51 0 86 -36t35 -85q0 -48 -37 -84.5
t-84.5 -36.5t-84 36.5t-36.5 84.5t36.5 84.5t84.5 36.5zM642 76h-483v19q0 138 70.5 234t171 96t171 -96t70.5 -234v-19zM859 76h-147v19q0 118 -51 209q13 7 32 7q67 0 116.5 -66t49.5 -157v-12z" />
    <glyph glyph-name="shenpiliu_yitongyi" unicode="&#xe618;" 
d="M516 892q-137 0 -253 -67.5t-183.5 -183.5t-67.5 -253t67.5 -253t183.5 -183.5t253 -67.5t253 67.5t183.5 183.5t67.5 253t-67.5 253t-183.5 183.5t-253 67.5zM763 531l-341 -327q-8 -8 -20.5 -8t-21.5 8q-3 3 -5 7l-146 140q-9 8 -9 20t8.5 20.5t21 8.5t21.5 -8
l131 -126l319 306q8 8 20.5 8t21.5 -8.5t9 -20.5t-9 -20z" />
    <glyph glyph-name="bumen" unicode="&#xe61c;" horiz-adv-x="1026" 
d="M895 896h-766q-55 0 -92 -37t-37 -92v-766q0 -53 37.5 -91t91.5 -38h766q53 0 91 37.5t38 91.5v766q-2 55 -39 92t-90 37zM257 237v-42h-77v51q2 8 7.5 12t18.5 8t15 5q11 4 30.5 13t21.5 10t6.5 2t6.5 2q7 5 14 25l7 2q-1 5 -4.5 9t-4.5 7q0 5 -1.5 14t-1.5 13l-6 2
q-9 5 -9 39q0 2 2 6.5t2 9.5q-6 34 2 57t25 28q44 19 72 3l7 -7l11 -2q0 -9 5 -23q0 -2 -2 -2q-5 -9 -5 -18v-7q0 -2 1 -11t2 -14t2.5 -12t5 -12.5t7.5 -9.5v-6q0 -10 -4 -14q-1 -2 -5.5 -4.5t-6.5 -4.5q-2 -4 -2.5 -12t-1.5 -10.5t-5 -7.5t-4 -11q7 0 9 -2q0 -1 1 -2t1 -2
q-7 -4 -21.5 -9.5t-21.5 -8.5q-15 -8 -29 -12q-9 -4 -13 -4q-4 -3 -16.5 -9.5t-17.5 -10t-12 -11t-11 -17.5zM747 158h-472v73q3 8 9.5 14t12 8.5t18.5 7t17 6.5q12 4 37 15.5t37 15.5q14 5 20 5q4 2 8 7.5t8 15.5t5 11l9 2q-2 6 -7 13t-7 9q-1 7 -2 19.5t-2 19.5l-9 2
q-14 7 -14 54q0 2 3.5 9t1.5 14q-10 46 1 78t35 41q62 25 99 3l9 -9l16 -3q3 -2 6 -6.5l5 -7.5l2 -4q5 -16 5 -47q0 -2 -1 -12.5t-1.5 -18.5t-0.5 -14q0 -5 5 -14q6 -16 2 -36q0 -11 -7 -18q-1 -2 -7 -4.5t-8 -6.5q-3 -5 -3.5 -16.5t-1.5 -15.5q-1 -6 -6 -14t-5 -15
q2 0 6.5 -1t6.5 -1q15 -30 21 -34q13 -5 20 -5q25 -9 74 -31q4 -2 13.5 -5t14.5 -5.5t11.5 -6t10.5 -8.5t7 -11q-2 -14 -2 -73zM841 192h-74v14v29q-2 5 -4.5 9.5t-5 7.5t-6.5 6t-6.5 5t-8 4.5t-7 3t-8 3l-6.5 2.5q-2 1 -6.5 2t-7.5 2q-18 9 -29 12q-22 11 -43 18q0 1 1.5 2
t1.5 2l6 2q-1 5 -4.5 9t-4.5 7q0 5 -1 14t-1 13l-7 2q-9 6 -9 25q1 1 3 2t2 3q9 12 9 27q5 30 -2 47q-3 2 -3 7v2v7q7 14 21 18q43 19 72 2l7 -6l11 -3q2 -1 4 -4.5t4 -5.5l1 -3q2 -12 2 -34q0 -2 -1 -15t-1 -17t4 -9q6 -8 0 -25q0 -9 -4 -13q-1 -2 -5.5 -4.5t-5.5 -4.5
q-3 -4 -3.5 -12t-1.5 -10.5t-5 -8t-4 -10.5q7 0 9 -2q6 -17 14 -25q2 -1 6.5 -2t6.5 -2q11 -4 30.5 -13t21.5 -10q4 -1 12 -4t12 -5t9 -6t8 -10q-3 -4 -3 -45z" />
    <glyph glyph-name="queren" unicode="&#xe61e;" 
d="M300 792q-113 -59 -181 -168.5t-68 -241.5q0 -100 39 -187t102 -145.5t147 -92t170 -35t174.5 34t157.5 106.5q66 69 99.5 149.5t33.5 157t-25.5 151.5t-72 136t-111.5 106t-138.5 66.5t-159 13t-167.5 -50.5zM821 473l-323 -322q-16 -17 -39.5 -17t-39.5 17l-175 175
q-17 16 -17 40q0 22 17 40q16 16 39.5 16t39.5 -16l135 -136l283 283q16 16 39.5 16t39.5 -16q17 -17 17 -40t-16 -40z" />
    <glyph glyph-name="yingjiebiyesheng" unicode="&#xe601;" 
d="M921 439v-150l32 -31l-65 -69l-66 67l45 41v118q-274 -114 -295 -124q-31 -14 -57.5 -14.5t-57.5 11.5q-269 103 -341 138q-51 24 -51.5 41.5t52.5 38.5q47 18 168.5 63.5t161.5 60.5q30 13 44 17t34 3t41 -12q38 -16 171.5 -68t180.5 -71q22 -10 32.5 -18t8.5 -14.5
t-6 -10.5t-16 -9.5t-16 -7.5zM581 232q24 10 83.5 38t93.5 43v-102q-4 -4 -10.5 -10t-30 -22.5t-50 -29t-67.5 -22.5t-84 -10q-47 0 -90.5 9.5t-72.5 23.5t-51 28t-32 24l-11 9v86q24 -10 183 -65q36 -13 71.5 -14t67.5 14z" />
    <glyph glyph-name="icon_hudongjiaoliu" unicode="&#xe630;" horiz-adv-x="1025" 
d="M481 450.5q0 -6.5 4.5 -11.5t11 -5t11 5t4.5 11.5t-4.5 11.5t-11 5t-11 -5t-4.5 -11.5zM672 450.5q0 -6.5 4.5 -11.5t11 -5t11 5t4.5 11.5t-4.5 11.5t-11 5t-11 -5t-4.5 -11.5zM576 450.5q0 -6.5 4.5 -11.5t11.5 -5t11.5 5t4.5 11.5t-4.5 11.5t-11.5 5t-11.5 -5
t-4.5 -11.5zM832 832h-639q-53 0 -90.5 -37.5t-37.5 -90.5v-640q0 -52 37.5 -90t90.5 -38h639q53 0 90.5 38t37.5 90v640q0 52 -37.5 90t-90.5 38zM608 210q0 -14 -9.5 -23.5t-22.5 -9.5h-191l-63 -64v64h-32q-13 0 -22.5 9.5t-9.5 22.5v225q0 14 9.5 23.5t22.5 9.5h95v-161
q0 -14 9.5 -23t22.5 -9h191v-64zM767 338q0 -13 -9.5 -22.5t-22.5 -9.5h-32v-64l-63 64h-191q-13 0 -22.5 9.5t-9.5 22.5v225q0 13 9.5 22.5t22.5 9.5h286q13 0 22.5 -9.5t9.5 -22.5v-225v0z" />
    <glyph glyph-name="tupian" unicode="&#xe768;" 
d="M808 896h-592q-80 0 -137 -56.5t-57 -136.5v-638q0 -49 23 -91t63 -69q9 -6 20 -12q42 -21 88 -21h592q80 0 137 56.5t57 136.5v638q0 80 -57 136.5t-137 56.5zM979 65q0 -70 -50 -120t-121 -50h-592q-43 0 -80 20q6 13 14 21l476 476q23 23 56 23t57 -23l240 -241v-106z
M979 204l-224 224q-30 30 -72.5 30t-72.5 -30l-476 -476q-10 -10 -18 -25q-33 24 -52 60t-19 78v638q0 70 50 120t121 50h592q71 0 121 -50t50 -120v-499v0zM356 674q-46 0 -78.5 -33t-32.5 -79t32.5 -79t78.5 -33t79 33t33 79t-33 79t-79 33zM356.5 473q-36.5 0 -62.5 26
t-26 63t26 63t62.5 26t62.5 -26t26 -63t-26 -63t-62.5 -26z" />
    <glyph glyph-name="xiaoxi" unicode="&#xe6dc;" 
d="M960 93q0 59 -29 103t-83 84v230q0 99 -64 175t-160 96v5q0 45 -33 77.5t-79.5 32.5t-79.5 -32.5t-33 -77.5v-5q-97 -20 -161 -96t-64 -175v-230q-53 -40 -81.5 -84.5t-28.5 -102.5q0 -7 29 -12.5t52.5 -7.5t28.5 -2h674q112 6 112 22v0zM515 -128q55 0 96 35.5t47 88.5
h-294q7 -53 48 -88.5t95 -35.5h8z" />
    <glyph glyph-name="zulinhetongxuding" unicode="&#xe6f6;" horiz-adv-x="1134" 
d="M836 277q70 0 126 -44v354q0 13 -7 30t-17 27l-150 153q-24 24 -58 24h-506q-28 0 -48 -20t-20 -48v-741q0 -28 20 -48t48 -20h459q-51 56 -51 132q0 82 60 141.5t144 59.5zM713 736q0 15 7 18t17 -8l153 -153q11 -10 8 -16.5t-18 -6.5h-99q-28 0 -48 19.5t-20 48.5v98z
M285 655h303q10 0 16.5 -7t6.5 -17t-6.5 -17t-16.5 -7h-303q-10 0 -17 7t-7 17t7 17t17 7zM285 519h554q10 0 17 -7t7 -17t-7 -17t-17 -7h-554q-10 0 -17 7t-7 17t7 17t17 7zM261 358.5q0 10.5 7 17t17 6.5h405q10 0 16.5 -6.5t6.5 -17t-6.5 -17t-16.5 -6.5h-405
q-10 0 -17 6.5t-7 17zM831.5 258q-74.5 0 -127.5 -53t-53 -127.5t53 -127.5t128 -53q9 0 9 9t-10 9q-67 0 -114.5 47.5t-47.5 115t47.5 115t115 47.5t115 -47.5t47.5 -114.5q0 -9 9 -9v0q9 0 9 9v0q0 74 -53 127t-127.5 53zM975 21l-98 -98v-26h26l98 98q5 6 5 13.5t-5.5 13
t-13 5.5t-12.5 -6zM784 134l-8 -23h-3l15 50l-21 4l-18 -61q-1 -2 -1 -3t1 -2q1 -2 2.5 -4t4 -3t4.5 -1h9l-14 -43q-1 -2 -1 -4q0 -1 1 -2q0 -3 1.5 -5.5t4 -3.5t5.5 -1v0h36v21h-19l24 75zM750 0h52v22h-52v-22zM820 84h27l-8 17h-26zM916 -1l-23 33h-22l6 6h39v21h-37v41
l-27 2v-43h-43v-21h35l-17 -18h-18l2 -21h25q3 0 5.5 1t3.5 3l22 24l20 -28h29v0zM840 63l-7 17h-27l8 -17h26zM809 128v-22h81v-27h25v49h-40v10h36v21h-36v7h-27v-7h-35v-21h35v-10h-39z" />
    <glyph glyph-name="shoucang" unicode="&#xe633;" 
d="M704 158h-91q-23 0 -39 -16.5t-16 -39t16 -38.5t39 -16h91v-91q0 -23 16 -39t39 -16t39 16t16 39v91h91q23 0 39 16t16 38.5t-16 39t-39 16.5h-91v91q0 22 -16.5 38.5t-39 16.5t-38.5 -16.5t-16 -38.5v-91v0zM838 349l115 104q45 41 34 74.5t-71 41.5l-266 31l-106 240
q-25 56 -59.5 56t-59.5 -56l-105 -240l-245 -30q-61 -8 -72.5 -43t31.5 -78l184 -178l-57 -279q-12 -59 16 -78.5t79 12.5l229 142l5 -3q-5 18 -5 38q0 53 37.5 90.5t90.5 37.5v0h18v18v0q0 53 37.5 90.5t90.5 37.5q18 0 41.5 -8t37.5 -20z" />
    <glyph glyph-name="num_" unicode="&#xe682;" 
d="M512 832q122 0 225 -60t163 -163t60 -225t-60 -225t-163 -163t-225 -60t-225 60t-163 163t-60 225t60 225t163 163t225 60zM704 256v58h-73v326h-89l-222 -330v-54h247v-128h64v128h73zM566 314h-181l181 267v-267z" />
    <glyph glyph-name="renyuanzengjia" unicode="&#xe689;" 
d="M928 160h-128v128q0 13 -9 22.5t-23 9.5t-23 -9t-9 -23v-128h-128q-13 0 -22.5 -9t-9.5 -23t9 -23t23 -9h128v-128q0 -13 9 -22.5t23 -9.5t23 9t9 23v128h128q13 0 22.5 9t9.5 23t-9 23t-23 9zM768 576q0 106 -75 181t-181 75t-181 -75t-75 -181q0 -67 31 -123.5
t84 -90.5q-136 -44 -221.5 -161.5t-85.5 -264.5h64q0 104 51.5 192.5t140 140t192.5 51.5q106 0 181 75t75 181zM512 384q-79 0 -135.5 56.5t-56.5 135.5t56.5 135.5t135.5 56.5t135.5 -56.5t56.5 -135.5t-56.5 -135.5t-135.5 -56.5z" />
    <glyph glyph-name="gonggaoguanli1" unicode="&#xe60d;" horiz-adv-x="1223" 
d="M959 536q-18 28 -51.5 58.5t-62.5 44.5q-8 4 -16 4v0v0q-9 0 -18 -5.5t-13 -13.5q-4 -7 -4 -15q0 -5 2 -10q4 -14 17 -20q50 -25 85 -81.5t35 -111.5v-1v-1q0 -55 -35 -111.5t-85 -80.5q-8 -4 -13.5 -13t-5.5 -18q0 -8 4 -15q4 -8 13 -13.5t18 -5.5q8 0 16 4
q29 15 62.5 45t51.5 58q18 29 30.5 73t12.5 78v0q0 82 -43 151zM956 822q-8 4 -16.5 4t-17.5 -5.5t-13 -13t-4 -16t5.5 -17.5t12.5 -13q107 -55 169 -156.5t62 -219.5t-62 -219t-169 -157q-7 -4 -12.5 -13t-5.5 -17.5t4 -15.5q7 -12 20.5 -16.5t26.5 2.5q124 64 196 181.5
t72 254.5t-72 254.5t-196 182.5zM628 893q-8 3 -16 3q-12 0 -21 -7q-18 -16 -132 -99q-128 -93 -164 -105h-2h-187q-50 0 -80 -38q-26 -32 -26 -79v-368q0 -48 35 -82.5t84 -34.5h52q15 0 25 10t10 24.5t-10 24.5t-24 10h-1h-52v0q-20 0 -34.5 14t-14.5 34v368q0 23 9.5 36
t26.5 13h190q12 0 27.5 5.5t58.5 31.5t110 75q31 22 73 54l12 9v-811l-12 10q-29 24 -57 47q-62 49 -102 75.5t-55 32.5t-27 6v0q-15 0 -25 -10t-10 -25q0 -13 9.5 -22.5t22.5 -11.5q34 -10 150 -104q55 -43 116 -97l2 -1q10 -9 24 -9q7 0 14 3q8 4 14 13t6 18v956v0
q0 9 -5.5 18t-13.5 13z" />
    <glyph glyph-name="chalvbaoxiaodan" unicode="&#xe63b;" 
d="M789 446q-7 6 -20 8l-22 3v25l-60 -42l60 -42v24q22 2 35 -4q14 -7 23 -20l7 -10q1 13 -3 27q-6 22 -20 31zM633 267v0h-100v79h100v0q8 1 13.5 6.5t5.5 13.5t-5.5 14t-13.5 6v0h-79l74 93q5 6 4 14.5t-7.5 13.5t-14.5 4t-13 -7l-85 -106l-84 106q-5 6 -13 7t-14.5 -4
t-7.5 -13.5t4 -14.5l74 -93h-78q-9 0 -14.5 -5.5t-5.5 -14t5.5 -14.5t14.5 -6h100v-79h-100q-9 0 -14.5 -6t-5.5 -14t5.5 -14t14.5 -6h100v-67q0 -8 5.5 -14t14 -6t14.5 6t6 14v67h100v0q8 0 13.5 6t5.5 14t-5.5 14t-13.5 6zM792.5 358q-8.5 0 -14.5 -5.5t-6 -14.5v-240
q0 -8 -5.5 -14t-14.5 -6h-480q-8 0 -14 6t-6 14v240q0 9 -5.5 14.5t-14 5.5t-14.5 -5.5t-6 -14.5v-250q0 -20 15 -35t35 -15h500q21 0 35.5 15t14.5 35v250q0 9 -5.5 14.5t-14 5.5zM763 549v0l-225 174q-5 5 -13 5t-13 -5l-207 -174h-73q-8 0 -14 -5.5t-6 -14t6 -14.5t14 -6
h80v0h1v0v0q1 1 1.5 1h1h1h1t1 0.5t1 0.5h0.5l0.5 0.5t1 0.5t1 0.5t1 0.5t1 0.5l0.5 0.5v0v0l201 169l212 -165q6 -6 14 -6t14 6t6 14q0 11 -9 17z" />
    <glyph glyph-name="bijibendiannao" unicode="&#xe603;" 
d="M854 222v432h-684v-432l-95 -108h874zM200 624h624v-357h-624v357zM200 210v27h624v-27l4 -4l54 -62h-740zM317 166h390v30h-390v-30z" />
    <glyph glyph-name="shezhi" unicode="&#xe607;" 
d="M512 198q76 0 129 54.5t53 131.5t-53.5 131.5t-128.5 54.5q-76 0 -129 -54.5t-53 -131.5t53.5 -131.5t128.5 -54.5zM512 250q-55 0 -94.5 39.5t-39.5 94.5t39.5 94.5t94.5 39.5t94.5 -39.5t39.5 -94.5t-39.5 -94.5t-94.5 -39.5zM249 53q51 -42 112 -67q66 60 150.5 60
t150.5 -60q65 25 112 67q-19 80 22 163q47 79 128 102q7 45 7 67.5t-7 67.5q-81 24 -128 102q-43 73 -22 163q-51 42 -112 68q-66 -61 -150.5 -61t-150.5 61q-65 -25 -112 -68q19 -80 -22 -163q-48 -78 -128 -102q-7 -45 -7 -67.5t7 -67.5q80 -23 128 -102q41 -83 22 -163z
M361 -62q-87 30 -150 89q-12 12 -7 23q25 74 -16 140q-39 69 -112 84q-16 5 -16 19q-9 43 -9 89q0 42 9 90q5 13 16 19q79 21 112 83q37 64 16 141q-5 17 7 23q62 53 150 89q12 4 22 -6q58 -58 128 -58q80 0 128 58q12 12 23 6q87 -30 150 -89q12 -12 7 -23q-25 -74 16 -141
q39 -68 112 -83q16 -5 16 -19q9 -43 9 -90q0 -41 -9 -89q-5 -14 -16 -19q-79 -21 -112 -84q-37 -63 -16 -140q5 -17 -7 -23q-62 -53 -150 -89q-12 -4 -23 6q-57 58 -128 58q-80 0 -128 -58q-6 -6 -16 -6h-6z" />
    <glyph glyph-name="message" unicode="&#xe6a5;" 
d="M907 730h-791q-20 0 -34.5 -15t-14.5 -35l426 -334q7 -5 18.5 -5t18.5 5l426 331v2q0 21 -14.5 36t-34.5 15zM877 176q6 -6 6 -15q0 -7 -5 -12.5t-13 -5.5t-13 7h-1l-15 15v1l-192 197v0l-81 -63q-23 -17 -52 -17t-51 16l-81 64v0l-208 -213v0q-5 -7 -14 -7
q-7 0 -12.5 5.5t-5.5 12.5q0 9 7 15l188 222l-267 209v-518q0 -21 14 -36t35 -15h791q20 0 34.5 15t14.5 36v516l-267 -208z" />
    <glyph glyph-name="atm-away" unicode="&#xe61f;" 
d="M784.5 269q-15.5 0 -26.5 29.5t-11 71t11 70.5t26.5 29t26.5 -29t11 -70.5t-11 -71t-26.5 -29.5zM506.5 230q-15.5 0 -26.5 25.5t-11 62t11 62t26.5 25.5t26.5 -25.5t11 -62t-11 -62t-26.5 -25.5zM298 725q-112 -55 -179.5 -152t-70.5 -211v-11q0 -10 7 -17t16.5 -7
t16.5 7t7 17v10q3 100 63 186t161 136q9 4 12 13.5t-1 18t-13.5 12t-18.5 -1.5zM496 -76q20 -2 40 -2v0q132 0 244.5 57t178 156t65.5 216t-65.5 215.5t-178 155.5t-244.5 57h4q-2 2 -10 9q-24 22 -45 35q-81 52 -211 52q-10 0 -17 -7t-7 -17t7 -17t17 -7q117 0 186 -44
q2 -2 19.5 -16t33.5 -24.5t23 -10.5q120 0 221.5 -51.5t160 -139t58.5 -190.5t-58.5 -191t-160 -139t-221.5 -51q-19 0 -37 1q-10 1 -17.5 -5.5t-8 -16.5t6 -17.5t16.5 -7.5zM238 -126q99 0 168.5 70t69.5 168.5t-69.5 168.5t-168.5 70t-168.5 -70t-69.5 -168.5t69.5 -168.5
t168.5 -70zM238 -78q-79 0 -134.5 56t-55.5 135t55.5 134.5t134.5 55.5t135 -55.5t56 -134.5t-56 -135t-135 -56zM214 217v-142q0 -10 7 -17t17 -7t17 7t7 17v142q0 10 -7 17t-17 7t-17 -7t-7 -17zM304 62l-67 76q-6 7 -16 8t-17.5 -5.5t-8 -16.5t5.5 -18l67 -76
q6 -7 16 -7.5t17.5 6t8 16t-5.5 17.5z" />
    <glyph glyph-name="zijinguanlipingtai" unicode="&#xe7e0;" horiz-adv-x="5296" 
d="M65 347v39q63 19 120 52h87q-54 -35 -110 -54q42 0 104 4h14q7 5 17 11q18 12 29 16h95q-103 -70 -242 -111q103 0 199 6q-9 21 -25 39h56q35 -47 51 -99h-60q-2 12 -6 23q-54 -3 -108 -7v-62q3 -62 -66 -62h-51v42h24q27 0 27 24v56q-31 -2 -62 -2h-4h-110v42
q81 18 151 47q-76 -4 -130 -4v0zM15 430v47h27v120h56v-115h19q11 1 23 2v130h55v-37h58v-38h-58v-49q31 4 60 10v-37q-82 -23 -240 -33v0zM340 438q-70 -4 -66 64v114h62v-54q56 6 81 37h60q-35 -68 -141 -72v-21q-2 -31 29 -29h41q32 -2 29 27v11h46v-13q4 -68 -66 -64
h-75zM481 153q-122 14 -164 91h67q29 -46 97 -56v-35v0zM13 153v35q67 10 98 56h66q-44 -77 -164 -91zM1017 422q-52 14 -91 33v-33h-114v-54h163v-46h-163v-124h194v-41h-457v41h193v124h-164v46h164v54h-112v33q-41 -19 -93 -33v43q141 54 205 155h70q64 -101 205 -155
v-43v0zM777 554q-60 -58 -120 -87h240q-28 14 -63 39.5t-57 47.5zM860 219q16 40 22 83h60q-6 -50 -24 -83h-58v0zM636 219q-23 41 -25 83h60q2 -42 21 -83h-56zM1069 546v43h204v-43h-22v-273q16 4 33 6v-40l-9 -4q-10 -2 -24 -6v-89h-52v77q-48 -9 -135 -15v50l27 2v292
h-22zM1284 506v44h33q-11 23 -17 60h58q6 -39 19 -60h54q12 27 16 58h60q-4 -27 -16 -58h39v-44h-95v-107h109v-44h-107q8 -103 107 -171v-44q-103 50 -140 128q-42 -80 -139 -128v42q97 72 106 173h-100v44h102v107h-89zM1145 258q27 0 54 6v66h-54v-72v0zM1145 546v-67h54
v67h-54v0zM1145 438v-66h54v66h-54v0zM1654 148v209h364v-132q2 -79 -72 -77h-292zM2082 415q-10 4 -31 11q-47 16 -66 24v-39h-298v37q-48 -18 -97 -33v44q145 56 207 161h78q56 -99 207 -161v-44zM1720 192h201q31 -2 29 35v87h-230v-122zM1836 554q-23 -26 -62 -54.5
t-70 -42.5h269q-33 14 -73 42.5t-64 54.5zM2604 140q-98 25 -160 60q-62 -31 -161 -62v41q75 23 120 56q-50 50 -81 118h67q31 -56 55 -83q40 40 65 102h-201v43h271v-43q-37 -93 -93 -139q47 -33 118 -51v-42v0zM2130 502v42h54v70h62v-70h43v-42h-43v-105q21 7 43 12v-41
l-43 -17v-151q0 -60 -64 -58h-44v44h25q21 0 21 18v129q-10 -2 -38 -7q-12 -2 -20 -4v52q29 2 58 8v120h-54v0zM2548 440q-62 -2 -60 60v54h-91v-29q4 -83 -104 -93v33q48 12 46 60v72h209v-93q-2 -27 23 -25h31v-39h-54zM2715 231v151h360v-151h-64v110h-231v-110h-65z
M2662 142v40q207 24 200 113v23h69v-23q-7 -85 194 -116v-37q-153 13 -227 68q-69 -55 -236 -68v0zM2775 393v33q143 29 143 97v12h66v-14q2 -64 147 -95v-36q-124 13 -180 65q-58 -54 -176 -62v0zM3057 500v50h-174q-31 -33 -99 -50v33q60 27 70 85h62q-2 -4 -4 -12
q-4 -13 -6 -17h209v-89h-58zM2655 393q44 58 56 120h54q-10 -69 -43 -120h-67zM2705 533q-10 46 -37 81h58q27 -31 41 -81h-62zM3549 506q-2 27 -10 46h-29q-13 -23 -50 -42v-26h193v-75h-56v-50q2 -62 -56 -60h-228v-33h300v-56q2 -64 -62 -62h-304v261h-47v75h188v26h33
v21q48 25 56 83h58l-6 -25h134v-37h-72q6 -21 12 -46h-54v0zM3322 504q-2 25 -13 48h-25q-29 -39 -93 -54v33q52 25 62 83h58q-1 -13 -6 -25h122v-37h-66q10 -27 12 -48h-51v0zM3549 229h-236v-41h213q13 -1 18.5 4t4.5 16v21zM3264 444v-33h323v33h-323zM3313 376v-41h201
q23 -2 21 22v19h-222zM3893 349v246h281v-180q2 -66 -66 -66h-44v-50h114v-43h-114v-60h135v-39h-335v39h138v60h-113v43h113v50h-109zM3719 546v41h155v-41h-45v-118h41v-44h-41v-136q21 4 47 12v-41q-60 -29 -161 -42v50l52 8v149h-46v44h46v118h-48zM3949 393h53v60h-53
v-60zM4089 393q31 0 29 29v31h-54v-60h25zM4118 552h-54v-56h54v56zM3949 552v-56h53v56h-53zM4269 548v45h433v-45h-182v-201h202v-45h-202v-164h-71v164h-203v45h203v201h-180zM4333 390q-31 58 -41 116h68q9 -58 33 -116h-60zM4575 390q27 58 34 116h66q-13 -64 -40 -116
h-60zM4826 155v211h378v-143q2 -70 -74 -68h-304v0zM5173 395q-4 16 -10 33q-130 -17 -312 -17h-48v52q83 68 126 151h81q-52 -93 -137 -151q164 0 274 8q-9 25 -36 75h60q40 -65 69 -151h-67zM4892 194h213q33 -2 31 35v91h-244v-126z" />
    <glyph glyph-name="shenpi" unicode="&#xe647;" 
d="M512 -128q212 0 362 150t150 362t-150 362t-362 150t-362 -150t-150 -362t150 -362t362 -150zM433 387l-23 -58q-6 -10 -0.5 -20t20.5 -10h157q10 0 21 10q5 10 0 20l-28 58q29 19 45.5 48.5t16.5 64.5q0 56 -39.5 94.5t-93.5 38.5t-94 -39.5t-40 -93.5q-2 -33 14 -63.5
t44 -49.5zM505 606q44 0 75 -31t31 -75q0 -29 -15.5 -54.5t-42.5 -37.5q-12 -6 -7 -17l27 -62h-133l28 62q2 5 0 11.5t-7 8.5q-25 13 -40 38.5t-15 53.5q-2 42 27 72.5t72 30.5zM335 131h344v28h-344v-28zM689 278h-365q-10 0 -18.5 -9.5t-8.5 -24.5v-24q0 -15 7.5 -24.5
t19.5 -9.5h365q11 0 19.5 9.5t8.5 24.5v24q-6 34 -28 34zM686 217v-7h-358v31v6h358v-30z" />
    <glyph glyph-name="tubiaozhizuomoban" unicode="&#xe60a;" 
d="M828 -126h-634q-80 0 -137 57t-57 137v634q0 80 57 137t137 57h634q80 0 137 -57t57 -137v-634q0 -80 -57 -137t-137 -57zM395 287q0 50 19 96h-143q-4 0 -4 4v48q0 4 4 4h158q4 0 4 -4v-14q29 46 75 76h-237q-4 0 -4 4v48q0 4 4 4h287q4 0 4 -4v-26q36 12 75 12
q8 0 16 -1v133q0 8 -5 13t-13 5h-441q-7 0 -12.5 -5t-5.5 -13v-568q0 -8 5.5 -13.5t12.5 -5.5h309q-50 34 -79 88.5t-29 118.5zM360 273q0 -4 -4 -4h-85q-4 0 -4 4v48q0 4 4 4h85q4 0 4 -4v-48zM637 494q-84 0 -143 -60.5t-59 -146.5t59 -147t143 -61t143 61t59 147
t-59 146.5t-143 60.5zM717 299v-27h-64v-37h64v-27h-64v-54h-33v54h-66v27h66v37h-66v27h55l-61 114h37q22 -40 51 -106l54 106h35l-63 -114h55zM717 299z" />
    <glyph glyph-name="lizhi" unicode="&#xe626;" 
d="M670.5 -59q-118.5 0 -203 84t-84.5 202.5t84.5 203t203 84.5t202.5 -84.5t84 -203t-84 -202.5t-202.5 -84zM670.5 473q-101.5 0 -173.5 -72t-72 -173.5t72 -173t173.5 -71.5t173 72t71.5 173t-71.5 173t-173 72zM360 96h-45q-48 0 -117.5 26t-69.5 40v13q0 72 53 108.5
t134 36.5h18q7 33 22 64h-40q-107 0 -179 -55.5t-72 -153.5v-13q0 -59 72 -94.5t179 -35.5h87q-24 29 -42 64zM388 441q67 92 176 123q14 36 14 74q0 81 -58.5 139t-141 58t-141.5 -58t-59 -139.5t59 -139t141 -57.5h3.5h3.5h3zM242 638q0 55 40 94t96 39t96 -39t40 -94
t-40 -94t-96 -39t-96 39t-40 94zM790 197q-10 4 -20 4h-113l4 10h104q28 0 41 27q3 9 3 17v55q0 7 -5 12t-12 5t-12 -5t-5 -12v-55q0 -4 -3 -7q-2 -3 -7 -3h-196q-4 0 -6 3q-3 3 -3 7v55q0 7 -5 12t-13 5q-7 0 -12 -5t-5 -12v-55q0 -8 4 -17t9 -14q13 -13 31 -13h54l-3 -10
h-56q-10 0 -20 -4q-18 -8 -27 -27q-4 -10 -4 -20v-84q0 -7 5 -12t12 -5t12 5t5 12v84q0 8 5 12q5 5 12 5h43l-24 -65q-5 -9 1 -16q5 -8 14 -8h109q18 0 31 13t13 31v12q0 7 -5 12t-12.5 5t-12 -5t-4.5 -12v-12q0 -9 -10 -9h-83l20 54h126q8 0 12 -5q5 -4 5 -12v-51
q0 -7 -5 -11q-4 -5 -12 -5h-12q-7 0 -12 -5t-5 -12q0 -8 5 -12.5t12 -4.5h12q11 0 20 4q20 8 27 27q4 9 4 20v50q0 10 -4 20q-8 19 -27 27zM817 368h-133v8q0 7 -5 11.5t-12 4.5t-12 -4.5t-5 -11.5v-8h-132q-8 0 -12.5 -5t-4.5 -12t5 -12t12 -5h76q-10 -1 -14 -11v-1
q-2 -6 1 -12q3 -7 9 -9l30 -10q-15 -4 -36 -10q-6 -1 -9.5 -7t-2.5 -12v-1q3 -14 16 -14q3 0 5 1q46 11 82 23l70 -24q2 -1 4 -1q12 0 17 11v2q2 7 -1 13t-10 8l-30 11q10 4 26 11q6 3 8 9q3 7 0 14l-2 3v0q-4 5 -10 6h70q7 0 12 5t5 12t-5 12t-12 5zM736 333
q-29 -13 -61 -25l-74 26h-4h142q-2 0 -3 -1z" />
    <glyph glyph-name="shebao" unicode="&#xe64e;" horiz-adv-x="1364" 
d="M669 853q-15 0 -27 -10q-97 -77 -338 -128q-14 -3 -24 -15t-10 -26v-372q0 -49 21.5 -96t56 -84t76.5 -70t83.5 -56.5t76 -40t56 -25.5t21.5 -8q8 3 22 8.5t54.5 25t77.5 41.5t82 57.5t77.5 73t54.5 87.5t22 102v360q0 14 -9 25.5t-23 14.5q-241 56 -325 125
q-9 11 -25 11zM669 794q96 -73 328 -127v-350q0 -47 -25 -94t-61.5 -82.5t-84 -68.5t-87 -53.5t-77.5 -36.5q-37 15 -77 35.5t-87 52t-84 66t-61.5 79t-24.5 87.5v360q235 52 341 132zM850 402h-103v27h59q22 0 38.5 15.5t16.5 37.5v57q0 8 -3 21q-15 32 -50 32h-160
q-34 0 -50 -34q-4 -9 -4 -20v-58q0 -22 15.5 -37.5t38.5 -15.5h59v-27h-102q-9 0 -15 -6t-6 -15v-1q0 -9 6 -15t15 -6h102v-159q0 -8 6.5 -14t14.5 -6t14.5 6t6.5 14v159h102q9 0 15 6t6 15v1q-1 10 -7.5 16.5t-14.5 6.5zM634 539q0 3 3 10q3 3 9 3h160q5 0 8 -3q4 -7 4 -10
v-57q0 -13 -12 -13h-160q-12 0 -12 13v57zM646 350h-3q-7 0 -13 -5t-8 -12q-4 -30 -14 -59q-6 -24 -24 -56q-4 -6 -2.5 -14.5t8.5 -13.5q7 -3 12 -3q3 0 4 2q9 3 13 9q18 30 29 64q10 30 14 64q0 9 -4 16q-3 8 -12 8zM536 586q-8 0 -13 -5l-62 -51q-5 -4 -8 -13q0 -11 3 -15
v-1q8 -8 16 -8t13 5q2 1 6 4.5t7 4.5q2 3 7.5 7t8.5 6v-318q0 -9 6 -15t14.5 -6t14.5 6t6 15v363q1 8 -4.5 14.5t-14.5 6.5zM824 338q-6 14 -19 14q-3 0 -7 -2h-1q-6 -2 -11 -9t-2 -16l40 -127q2 -6 10 -11h1q3 -1 10 -1q5 0 6 1q8 3 12 10.5t1 15.5z" />
    <glyph glyph-name="fangwuxiezhen" unicode="&#xe655;" 
d="M61 753q0 34 24 58t58 24h758q34 0 58 -24t24 -58v-758q0 -34 -24 -58t-58 -24h-758q-34 0 -58 24t-24 58v758zM487 365l-1 -92l-107 1l1 92zM764 364l-231 201l-234 -199l-1 -161q0 -10 8 -16.5t19 -6.5l250 -1l1 184h107l-1 -185h54q11 0 19 6.5t8 16.5zM818 402.5
q0 9.5 -8 15.5h1l-100 86v68q1 9 -7 16t-19 7t-19 -7t-8 -16v-21l-105 91q-7 6 -17 7v0h-1v0h-2v0q-11 0 -19 -7l-260 -221q-8 -6 -8 -16t7.5 -16.5t18.5 -6.5t19 6l242 206v-1h1l239 -207v0q7 -7 18 -7t19 7t8 16.5z" />
    <glyph glyph-name="atm1" unicode="&#xe605;" 
d="M512 -86q-95 0 -182 37.5t-150 100.5t-100.5 150t-37.5 182t37.5 182t100.5 150t150 100.5t182 37.5t182 -37.5t150 -100.5t100.5 -150t37.5 -182q0 -129 -67 -239q-4 -7 -12.5 -9.5t-16.5 2.5q-7 4 -9.5 12.5t2.5 16.5q59 102 59 217q0 116 -57 214t-155 155t-214 57
t-214 -57t-155 -155t-57 -214t57 -214t155 -155t214 -57q79 0 153 28.5t133 82.5q7 5 15.5 5t14.5 -7q6 -6 5.5 -15t-6.5 -15q-65 -59 -146.5 -91t-168.5 -32zM389 316q1 -2 3 -9q1 -4 -2 -5q-3 -2 -6 -2q-3 -1 -13 -1h-13q-4 0 -7 1q-2 1 -3 2l-2 4l-14 42h-80l-13 -41
q0 -2 -1 -4t-4 -2q-3 -1 -7 -1q-1 0 -4.5 -0.5t-6.5 -0.5q-9 0 -12 1q-4 0 -5 2q-2 2 -1 5q1 7 2 9l65 188q0 1 2 4q2 2 4 3q4 1 8 1h29q4 0 8 -1q3 -1 5 -3l3 -5zM292 471l-30 -90h60zM559 493.5v-8.5q-1 -1 -1 -2.5v-2.5q-1 -3 -2 -3l-3 -1h-53v-171q0 -1 -1 -3
q-1 -1 -4 -2q-2 -1 -7 -2h-9.5h-10.5q-6 2 -7 2q-2 1 -3 2q-1 2 -1 3v171h-53q-2 0 -3 1t-2 3q-1 3 -1 5v8.5v8.5q1 1 1 3v2q1 3 2 3q1 1 3 1h149q1 0 3 -1q1 0 2 -3t1 -5v-8.5zM830 306q0 -1 -1 -3q0 -2 -2.5 -2.5t-6.5 -1.5q-2 -1 -9.5 -1t-9.5 1q-6 1 -6 2q-3 0 -3 2
q-1 2 -1 3v172h-1l-61 -172q-1 -3 -2 -4t-4.5 -2t-6.5 -1h-10q-7 0 -10 1q-5 0 -6 1q-1 0 -3 2h-1q-1 1 -2 3l-59 172v-172q0 -1 -1 -3q-1 -1 -4 -2q-2 -1 -6 -1q-3 -1 -10 -1t-10 1q-5 1 -6 1q-2 1 -3 2q-1 2 -1 3v188q0 8 4.5 12.5t12.5 4.5h28q5 0 13 -1q6 -1 9 -4
q3 -2 6 -7q2 -3 5 -12l46 -126v0l48 126q1 5 4 12q2 4 6 7q3 4 8 4q3 1 10 1h29q4 0 8 -1q3 0 5 -3t3 -6q1 -4 1 -7v-188v0z" />
    <glyph glyph-name="piao" unicode="&#xe628;" 
d="M457 664h113v-62h-113v62zM618 558h119v-78h-119v78zM956 896h-888q-28 0 -48 -20t-20 -48v-888q0 -28 20 -48t48 -20h888q28 0 48 20t20 48v888q0 28 -20 48t-48 20zM191 104q111 48 181 103l34 -31q-77 -67 -184 -113zM546 118q0 -62 -68 -62h-68l-11 48
q11 0 31.5 -1.5t30.5 -1.5q31 0 31 30v106h-301v45h642v-48h-287v-116zM266 336v48h499v-44h-499v-4zM802 63q-59 54 -171 113l38 34q92 -51 174 -109zM847 664h-226v-62h171v-167h-560v171h171v58h-226v48h666v-48h4zM287 558h119v-78h-119v78zM457 558h113v-78h-113v78z
" />
    <glyph glyph-name="xiujiashenqing" unicode="&#xe60c;" 
d="M820 308l-7 3l6 4q68 53 68 139q0 72 -52 124t-125 52t-125 -52t-52 -124q0 -85 68 -139l6 -4l-7 -3q-86 -34 -137 -108.5t-51 -166.5v-60q0 -10 7.5 -18t18.5 -8h544q11 0 18.5 8t7.5 18v60q0 92 -51 166.5t-137 108.5zM585 453.5q0 51.5 36.5 88t88.5 36.5t88.5 -36.5
t36.5 -88t-36.5 -88t-88.5 -36.5t-88.5 36.5t-36.5 88zM956 -1h-492v34q0 101 72 173t174 72t174 -72t72 -173v-34v0zM361 444l-126 -125l40 -30l141 140v224h-55v-209zM84 392q-27 125 42.5 232t193.5 134q33 7 65 7q62 0 119.5 -24.5t100.5 -68.5l61 22q-52 61 -126 95.5
t-154 34.5q-39 0 -78 -8q-72 -16 -131.5 -57t-99.5 -103q-83 -128 -51 -277q23 -108 102 -185t188 -98l38 54q-100 10 -174.5 76.5t-95.5 165.5z" />
    <glyph glyph-name="jieshu" unicode="&#xe621;" 
d="M439 891q102 14 200 -11t180 -86.5t133.5 -148.5t66.5 -188q14 -103 -12.5 -202.5t-84.5 -177.5t-146 -131.5t-191 -68.5q-88 -12 -175.5 5.5t-162.5 63.5q-13 8 -16.5 23t4 27.5t22.5 16.5t28 -4q134 -82 289 -59q118 17 209.5 89.5t135.5 180.5t27 226
q-12 87 -56.5 161.5t-114.5 127.5t-154 74.5t-171 8.5q-118 -17 -210 -89.5t-135.5 -181t-26.5 -225.5q13 -95 65 -175q8 -12 4.5 -27t-16 -23t-27.5 -5t-23 16q-60 93 -76 203q-14 102 11 200t86 180q23 29 49 56q120 119 288 144zM251 311h87q14 0 19.5 -4t5.5 -15.5
t-5.5 -16t-19.5 -4.5h-110q-11 0 -17 4t-6 16v210q0 11 5.5 15t17.5 4h110q11 0 16 -4.5t5.5 -15.5t-5.5 -15.5t-16 -4.5h-87v-60h83q12 0 17 -5t5 -15.5t-5 -15t-17 -4.5h-83v-69zM456 283q0 -8 -5 -13.5t-17.5 -5.5t-18 6t-5.5 13v220q0 7 3.5 12t16.5 5q7 0 11.5 -4
t7.5 -9l113 -152v147q0 6 5.5 12t18 6t18 -5.5t5.5 -12.5v-222q0 -6 -4 -11t-16 -5q-7 0 -12 4.5t-8 8.5l-113 147v-141v0zM734 520q28 0 48.5 -9.5t33.5 -26t19 -39t6 -49.5q0 -28 -6.5 -51t-19.5 -39.5t-33 -25.5t-46 -9h-68q-12 0 -15.5 4t-3.5 12v217q0 8 3 12t16 4h66z
M695 308h41q59 0 59 89q0 21 -3.5 37t-11 27t-20.5 16.5t-33 5.5h-32v-175v0z" />
    <glyph glyph-name="gonggao1" unicode="&#xe629;" 
d="M158 896h708q65 0 111.5 -46.5t46.5 -111.5v-708q0 -65 -46.5 -111.5t-111.5 -46.5h-708q-65 0 -111.5 46.5t-46.5 111.5v708q0 65 46.5 111.5t111.5 46.5zM524 695q-14 7 -28 0q-35 -27 -75 -55q-29 -22 -51 -37t-30 -20t-9 -6h-107q-33 0 -51 -24q-15 -23 -15 -47v-209
q0 -29 20.5 -50t49.5 -21h32q9 0 16.5 7.5t7.5 16.5q0 10 -6.5 17t-17.5 7h-28q-8 0 -15.5 7t-7.5 16v209q0 8 4 16t11 8h107q26 0 114 63q8 6 21.5 15.5t21.5 15.5v-441q-11 8 -31 28q-85 67 -106 67q-9 0 -16.5 -7.5t-7.5 -16.5q0 -10 6 -17t18 -7q14 0 82 -59l67 -55
q0 -3 4.5 -5.5t7.5 -2.5q8 0 12 4q16 8 16 20v543q-8 16 -16 20zM709 656q-9 5 -18.5 2t-13.5 -10q-5 -9 -1 -19t13 -13q60 -32 95 -88t35 -120q0 -65 -35.5 -122.5t-94.5 -86.5q-18 -12 -12 -32q6 -11 20 -11q8 0 12 4q71 38 112.5 105t41.5 147q2 74 -39 139.5t-115 104.5
zM713 317q23 41 23 87q0 53 -27 86q-23 41 -67 59q-9 6 -18.5 2t-13.5 -13q-5 -9 -1 -19t13 -13q31 -15 49 -43.5t18 -62.5t-17.5 -63t-49.5 -44q-18 -12 -12 -31q6 -12 24 -12q8 0 12 4q46 26 67 63z" />
    <glyph glyph-name="nianxiujiashenpi" unicode="&#xe639;" 
d="M803 586v42h-250v251h-516v-293h766zM608 858v-184h184zM37 589h11v-713h-11v713zM792 589h11v-187h-11v187zM797 -43h12v-81h-12v81zM37 -112h766v-12h-766v12zM802 402q-92 0 -157 -65.5t-65 -157t65 -157t157 -65.5t157 65.5t65 157.5t-65 157t-157 65zM802 4
q-73 0 -124.5 51.5t-51.5 124t51.5 124.5t124.5 52t124.5 -51.5t51.5 -124.5t-51.5 -124.5t-124.5 -51.5zM887 238l-106 -90l-44 44q-7 7 -16.5 7t-16.5 -6.5t-7 -16.5t7 -17l74 -74l139 118q7 6 8 15.5t-5.5 17t-15.5 8t-17 -5.5zM188.5 377.5q38.5 60.5 42.5 87.5
q30 -12 56 -18q-18 -19 -40 -59h204q45 0 91 2v-34q-43 2 -91 2h-67v-83q78 0 136 2v-34q-62 2 -136 2v-95h103q45 0 83 2v-35q-37 2 -83 2h-103v-46q0 -47 2 -85h-44q2 39 2 81v50h-137q-56 0 -107 -2v35q48 -2 95 -2q0 78 -3 125h152v83h-115q-42 -65 -77 -105
q-22 18 -46 22q44 42 82.5 102.5zM344 150v95h-111v-95h111z" />
    <glyph glyph-name="gongsi" unicode="&#xe609;" 
d="M463 436q0 4 -3 7t-7 3h-33q-4 0 -7 -3t-3 -7v-33q0 -4 3 -7t7 -3h33q4 0 7 3t3 7v33zM463 270q0 5 -3 8t-7 3h-33q-4 0 -7 -3t-3 -8v-32q0 -5 3 -8t7 -3h33q4 0 7 3t3 8v32zM354 528h-33q-4 0 -7 -3t-3 -7v-33q0 -4 3 -7t7 -3h33q4 0 7 3t3 7v33q0 4 -3 7t-7 3zM463 188
q0 4 -3 7t-7 3h-33q-4 0 -7 -3t-3 -7v-33q0 -4 3 -7t7 -3h33q4 0 7 3t3 7v33zM354 198h-33q-4 0 -7 -3t-3 -7v-33q0 -4 3 -7t7 -3h33q4 0 7 3t3 7v33q0 4 -3 7t-7 3zM354 281h-33q-4 0 -7 -3t-3 -8v-32q0 -5 3 -8t7 -3h33q4 0 7 3t3 8v32q0 5 -3 8t-7 3zM354 364h-33
q-4 0 -7 -3t-3 -8v-32q0 -5 3 -8t7 -3h33q4 0 7 3t3 8v32q0 5 -3 8t-7 3zM354 446h-33q-4 0 -7 -3t-3 -7v-33q0 -4 3 -7t7 -3h33q4 0 7 3t3 7v33q0 4 -3 7t-7 3zM463 353q0 5 -3 8t-7 3h-33q-4 0 -7 -3t-3 -8v-32q0 -5 3 -8t7 -3h33q4 0 7 3t3 8v32zM697 364h-33q-4 0 -7 -3
t-3 -8v-32q0 -5 3 -8t7 -3h33q4 0 7 3t3 8v32q0 5 -3 8t-7 3zM697 446h-33q-4 0 -7 -3t-3 -7v-33q0 -4 3 -7t7 -3h33q4 0 7 3t3 7v33q0 4 -3 7t-7 3zM697 528h-33q-4 0 -7 -3t-3 -7v-33q0 -4 3 -7t7 -3h33q4 0 7 3t3 7v33q0 4 -3 7t-7 3zM896 874h-768q-48 0 -82 -34
t-34 -82v-748q0 -48 34 -82t82 -34h768q48 0 82 34t34 82v748q0 48 -34 82t-82 34zM830 76q0 -4 -3 -7t-7 -3h-616q-4 0 -7 3t-3 7v34q0 4 3 7t7 3h31v447q0 20 18 27l247 106q14 6 27 -2q14 -9 14 -25v-553h33v478q0 17 15 25q14 9 29 0l158 -92q15 -8 15 -25v-386h31
q4 0 7 -3t3 -7v-34h-2zM697 198h-33q-4 0 -7 -3t-3 -7v-33q0 -4 3 -7t7 -3h33q4 0 7 3t3 7v33q0 4 -3 7t-7 3zM463 601q0 4 -3 7t-7 3h-33q-4 0 -7 -3t-3 -7v-33q0 -4 3 -7t7 -3h33q4 0 7 3t3 7v33zM463 519q0 4 -3 7t-7 3h-33q-4 0 -7 -3t-3 -7v-33q0 -4 3 -7t7 -3h33
q4 0 7 3t3 7v33zM697 281h-33q-4 0 -7 -3t-3 -8v-32q0 -5 3 -8t7 -3h33q4 0 7 3t3 8v32q0 5 -3 8t-7 3z" />
    <glyph glyph-name="zhuangang" unicode="&#xe635;" 
d="M775 666v0q0 14 -10 24.5t-24 10.5h-486q-14 0 -24.5 -10.5t-10.5 -25t10.5 -25t24.5 -10.5h486q14 1 24 11t10 24v1zM250 515q-13 -1 -22 -10.5t-9 -22.5v-2v-3q0 -12 9 -22t22 -11h298q12 1 21 11t9 22v3v2q0 13 -9 22.5t-21 10.5h-298zM378 316h-133q-10 0 -17 -10.5
t-7 -25t7 -25t17 -10.5h133q10 0 17 10.5t7 25t-7 25t-17 10.5zM362 -56h-218q-28 0 -47.5 20t-19.5 48v0v744v1q0 28 19.5 48t47.5 20h720q28 0 47.5 -20t19.5 -48v-1v-189q0 -14 10 -24.5t24.5 -10.5t24.5 10.5t10 24.5v189v2q0 56 -40 96.5t-96 41.5h-720
q-56 -1 -96 -41.5t-40 -96.5v-2v-744v-2q0 -56 40 -96.5t96 -41.5h218q14 0 24.5 10.5t10.5 25t-10.5 25t-24.5 10.5v1zM826 192v-132q0 -26 -9.5 -33.5t-52.5 -10.5q-7 20 -20 37q32 -3 41 0t9 14v150h-211v-191h-37q6 32 6 64v5v97v6q0 24 -3 48q51 -4 102 -4h38h33
q54 0 107 4q-4 -23 -4 -47v-7h1zM792 295q1 13 1 27t-1 28q12 -3 25 -3h9t4.5 -0.5t-2.5 -3.5q-6 -24 -6 -48q0 -14 2 -28q-45 4 -132 4q-108 0 -133 -4q3 20 3 40.5t-3 40.5q15 -3 29 -3h8q9 0 0 -6q-4 -3 -4.5 -10t-0.5 -34h86v7q0 32 -6 64q13 -3 26 -3h10q9 0 3 -6
q-5 -5 -5 -60h88zM733 203q14 -13 31 -21q3 0 3 -2t-3 -3q-15 -5 -26 -16q-12 -11 -23 -20q45 -29 61 -44l-25 -21q-27 24 -57 44q-37 -30 -78 -54q-9 14 -24 23q44 16 80 45q-46 30 -63 39l20 18q23 -13 62 -39q24 21 42 48v3zM689 525q-89 0 -164 -43.5t-118.5 -119
t-43.5 -163.5t43.5 -163t118.5 -119t163.5 -44t163.5 44t119 119t44 163q-1 88 -44.5 163t-118.5 118.5t-163 44.5zM689 -82q-115 0 -196.5 81.5t-81.5 196.5t81.5 196.5t196.5 81.5t196.5 -81.5t81.5 -196.5v-4q0 -113 -80.5 -193.5t-193.5 -80.5h-4z" />
  </font>
</defs>
</svg>
