<?xml version="1.0" standalone="no"?><!DOCTYPE svg PUBLIC "-//W3C//DTD SVG 1.1//EN" "http://www.w3.org/Graphics/SVG/1.1/DTD/svg11.dtd"><svg t="1501572278664" class="icon" style="" viewBox="0 0 1024 1024" version="1.1" xmlns="http://www.w3.org/2000/svg" p-id="2733" xmlns:xlink="http://www.w3.org/1999/xlink" width="64" height="64"><defs><style type="text/css"></style></defs><path d="M512.296812 1.484058C230.325797 1.484058 1.484058 230.028986 1.484058 512.296812c0 281.971014 228.544928 510.812754 510.812754 510.812753s510.812754-228.544928 510.812753-510.812753C1023.109565 230.325797 794.267826 1.484058 512.296812 1.484058zM652.985507 817.41913l-132.971594-249.024927 131.487536-120.802319L688.306087 777.646377 652.985507 817.41913z m139.50145-546.133333c-108.03942 109.82029-383.183768 389.713623-383.183769 389.713623l-10.388405 157.310145-12.466087 31.758841-89.637102-168.885797-167.698551-92.902029 31.462029-11.278841 163.84-10.982029 97.651015-95.870145-266.536812-154.342029 45.115363-41.256811L560.083478 326.492754l127.925797-130.003479c32.352464-32.946087 79.248696-17.808696 79.248696-17.808695l25.525797 24.635362c-0.296812-0.296812 26.11942 40.96-0.296811 67.969855z" fill="#4CA7ED" p-id="2734"></path></svg>