<?xml version="1.0" standalone="no"?><!DOCTYPE svg PUBLIC "-//W3C//DTD SVG 1.1//EN" "http://www.w3.org/Graphics/SVG/1.1/DTD/svg11.dtd"><svg t="1501067460448" class="icon" style="" viewBox="0 0 1096 1024" version="1.1" xmlns="http://www.w3.org/2000/svg" p-id="3020" xmlns:xlink="http://www.w3.org/1999/xlink" width="214.0625" height="200"><defs><style type="text/css"></style></defs><path d="M520.431737 604.301116c-49.950439-14.975532-78.941533-66.87791-64.925971-116.79635 8.991719-33.950939 33.982938-57.91819 64.925971-67.933877 16.991469-4.959845 34.974907-5.951814 52.958345-0.927971 50.910409 13.951564 80.925471 66.845911 67.901878 118.876285-13.023593 51.006406-66.941908 81.981438-117.884316 67.901878-0.991969-0.031999-1.951939-1.087966-2.975907-1.087966l0 0zM520.431737 9.023718l-7.967751-9.023718-18.975407 18.975407 26.975157 25.983188 246.71229 247.736258c37.982813 50.942408 50.942408 118.876285 19.999375 181.818318 52.958345-57.950189 60.958095-126.876035-2.047936-199.769757l-264.695728-265.687697zM520.431737 120.892222l-64.925971-64.893972-17.983438 18.943408 82.909409 82.909409 189.786069 190.810037c45.950564 48.926471 43.966626 123.868129 10.015687 179.866379 0.991969-1.023968 3.007906-2.047936 4.031874-3.007906 58.910159-63.934002 52.894347-138.87566 4.959845-194.777913l-208.761476-209.817443zM520.431737 232.760726l-120.860223-119.836255-17.983438 17.983438 138.843661 138.843661 133.851817 134.875785c35.934877 40.95872 38.942783 109.820568-4.031874 161.818943 0.991969-0.927971 2.975907-0.927971 4.031874-1.951939 64.893972-61.918065 57.950189-139.931627 18.943408-177.850442l-152.827224-153.819193zM520.431737 345.653198l-176.794475-176.794475-343.605262 343.66926 253.720071 252.728102c-76.893597-98.908909-18.943408-189.786069 45.950564-249.752195 52.958345-49.886441 144.859473-90.909159 220.729102-106.908659 1.983938 0 4.031874-0.927971 6.015812-0.927971s4.991844-1.023968 7.99975-1.023968c13.023593-1.983938 25.951189-1.023968 39.934752 1.983938 3.999875 1.023968 8.991719 3.007906 13.983563 5.055842l-67.901878-67.997875zM520.431737 614.316803c-2.975907 0-5.983813-0.927971-8.95972-2.975907-1.023968 0-1.983938 0-3.007906-0.991969l11.999625 11.999625 231.736758 232.760726 343.605262-342.645292-253.75207-253.75207c76.925596 98.908909 18.975407 189.786069-45.950564 249.784194-53.918315 51.902378-149.819318 93.853067-225.752945 107.868629-1.951939 0.927971-4.959845 0.927971-7.967751 0.927971-12.959595 1.983938-25.983188 1.023968-41.950689-3.039905l0 0zM520.431737 698.282179l-78.941533-78.941533c-35.934877-41.022718-38.942783-109.884566 4.031874-161.882941-1.023968 1.023968-3.007906 1.983938-4.031874 1.983938-65.91794 62.014062-57.950189 139.83563-18.943408 177.850442l273.719446 273.719446 17.983438-18.015437-193.817943-194.745914zM520.431737 810.150683l-134.843786-134.843786c-45.950564-48.990469-43.966626-123.900128-10.015687-179.866379-0.991969 0.991969-3.007906 2.015937-4.031874 2.975907-58.910159 63.998-52.894347 138.907659-4.991844 194.777913l274.711415 274.775413 16.991469-18.975407-137.851692-138.843661zM520.431737 923.043155l-191.770007-191.802006c-37.950814-49.854442-50.910409-117.852317-19.967376-181.690322-52.958345 58.974157-60.958095 126.844036 1.983938 200.761726l209.753445 208.761476 63.934002 64.925971 18.975407-17.983438-82.909409-83.005406z" fill="#dfe4df" p-id="3021"></path></svg>