<?xml version="1.0" standalone="no"?><!DOCTYPE svg PUBLIC "-//W3C//DTD SVG 1.1//EN" "http://www.w3.org/Graphics/SVG/1.1/DTD/svg11.dtd"><svg t="1500174778552" class="icon" style="" viewBox="0 0 1026 1024" version="1.1" xmlns="http://www.w3.org/2000/svg" p-id="2902" xmlns:xlink="http://www.w3.org/1999/xlink" width="200.390625" height="200"><defs><style type="text/css"></style></defs><path d="M895.436123 0h-766.872246C56.387665 0 0 56.387665 0 128.563877v766.872246c0 69.920705 56.387665 128.563877 128.563877 128.563877h766.872246c69.920705 0 128.563877-56.387665 128.563877-128.563877v-766.872246C1021.744493 56.387665 965.356828 0 895.436123 0zM257.127753 658.60793v42.854625H180.440529v-51.876652c4.511013-15.788546 24.810573-18.044053 40.599119-24.810573 18.044053-6.76652 36.088106-15.788546 51.876652-22.555066 4.511013-2.255507 9.022026-2.255507 13.533039-4.511013 6.76652-4.511013 11.277533-18.044053 13.53304-24.810573l6.76652-2.255506c-2.255507-9.022026-6.76652-9.022026-9.022027-15.788546 0-9.022026-2.255507-18.044053-2.255506-27.06608l-6.76652-2.255506c-9.022026-4.511013-9.022026-29.321586-9.022027-38.343613 0-4.511013 4.511013-6.76652 4.511014-15.788546-9.022026-47.365639 4.511013-78.942731 27.066079-85.709251 15.788546-6.76652 45.110132-18.044053 72.176211-2.255507l6.76652 6.76652 11.277533 2.255507c0 6.76652 2.255507 15.788546 4.511013 22.555066 0 0 0 2.255507-2.255506 2.255506-2.255507 4.511013-4.511013 9.022026-4.511013 18.044053v6.76652c2.255507 18.044053 2.255507 45.110132 18.044052 58.643172v6.76652c0 4.511013-2.255507 11.277533-4.511013 13.533039-2.255507 4.511013-9.022026 4.511013-11.277533 9.022027-4.511013 6.76652-2.255507 15.788546-4.511013 22.555066-2.255507 6.76652-9.022026 9.022026-9.022026 18.044053 2.255507 0 6.76652 0 9.022026 2.255506 0 2.255507 2.255507 2.255507 2.255507 4.511014-13.53304 6.76652-29.321586 11.277533-42.854626 18.044052-9.022026 4.511013-20.299559 9.022026-29.321586 11.277534-4.511013 2.255507-9.022026 4.511013-13.533039 4.511013-22.555066 13.53304-45.110132 20.299559-56.387666 47.365639z m489.444934 78.942731H275.171806v-72.176212c6.76652-22.555066 33.832599-27.066079 56.387665-36.088105 24.810573-9.022026 49.621145-22.555066 74.431718-31.577093 6.76652-2.255507 13.53304-4.511013 20.29956-4.511013 9.022026-4.511013 15.788546-24.810573 20.299559-33.832599l9.022027-2.255507c-2.255507-11.277533-9.022026-13.53304-13.53304-22.555066-2.255507-13.53304-2.255507-24.810573-4.511013-38.343612l-9.022026-2.255507c-13.53304-6.76652-13.53304-40.599119-13.53304-54.132158 0-6.76652 9.022026-11.277533 4.511013-22.555067-13.53304-65.409692 6.76652-108.264317 36.088106-119.54185 22.555066-9.022026 63.154185-24.810573 99.242291-2.255506l9.022026 9.022026 15.788546 2.255507c6.76652 4.511013 13.53304 18.044053 13.53304 18.044053 4.511013 15.788546 4.511013 31.577093 4.511013 47.365638 0 6.76652-4.511013 36.088106-2.255507 45.110132 0 6.76652 2.255507 9.022026 4.511014 13.53304 4.511013 11.277533 4.511013 24.810573 2.255506 36.088106 0 6.76652-2.255507 13.53304-6.76652 18.044053-4.511013 4.511013-11.277533 4.511013-15.788546 11.277533-4.511013 9.022026-2.255507 20.299559-4.511013 31.577092-2.255507 13.53304-11.277533 15.788546-11.277533 29.321586 4.511013 0 9.022026 2.255507 13.53304 2.255507 4.511013 9.022026 11.277533 27.066079 20.299559 33.832599 6.76652 2.255507 13.53304 4.511013 20.29956 4.511013 24.810573 9.022026 49.621145 20.299559 74.431718 31.577093 22.555066 9.022026 47.365639 13.53304 56.387665 36.088105-2.255507 13.53304-2.255507 51.876652-2.255507 72.176212z m94.731278-33.832599H766.872247v-13.53304V660.863436c-9.022026-27.066079-33.832599-33.832599-51.876652-40.599119-4.511013-2.255507-9.022026-2.255507-13.53304-4.511013-9.022026-4.511013-18.044053-9.022026-29.321586-11.277533-13.53304-6.76652-29.321586-13.53304-42.854625-18.044053 0-2.255507 2.255507-2.255507 2.255506-4.511013l6.76652-2.255507c-2.255507-9.022026-6.76652-9.022026-9.022026-15.788546 0-9.022026-2.255507-18.044053-2.255507-27.066079l-6.76652-2.255507c-6.76652-4.511013-9.022026-15.788546-9.022026-24.810573 2.255507-2.255507 4.511013-2.255507 4.511013-4.511013 6.76652-9.022026 9.022026-20.299559 9.022026-27.066079 2.255507-13.53304 4.511013-31.577093-2.255506-47.365639-2.255507-2.255507-2.255507-4.511013-2.255507-6.76652v-2.255506-6.76652c4.511013-9.022026 13.53304-15.788546 20.29956-18.044053 15.788546-6.76652 45.110132-18.044053 72.176211-2.255507l6.76652 6.76652 11.277533 2.255507c4.511013 2.255507 9.022026 13.53304 9.022026 13.533039 2.255507 11.277533 2.255507 22.555066 2.255507 33.8326 0 4.511013-2.255507 24.810573-2.255507 31.577092 0 4.511013 2.255507 6.76652 4.511014 9.022027 4.511013 6.76652 2.255507 18.044053 0 24.810572 0 4.511013-2.255507 11.277533-4.511014 13.53304-2.255507 4.511013-9.022026 4.511013-11.277533 9.022026-4.511013 6.76652-2.255507 15.788546-4.511013 22.555066-2.255507 6.76652-9.022026 9.022026-9.022026 18.044053 2.255507 0 6.76652 0 9.022026 2.255507 2.255507 6.76652 9.022026 20.299559 13.53304 24.810573 4.511013 2.255507 9.022026 2.255507 13.533039 4.511013 18.044053 6.76652 36.088106 15.788546 51.876652 22.555066 15.788546 6.76652 33.832599 9.022026 40.599119 24.810573-2.255507 4.511013-2.255507 31.577093-2.255506 45.110132z" fill="#f4ea2a" p-id="2903"></path></svg>