<?xml version="1.0" standalone="no"?><!DOCTYPE svg PUBLIC "-//W3C//DTD SVG 1.1//EN" "http://www.w3.org/Graphics/SVG/1.1/DTD/svg11.dtd"><svg t="1500102796366" class="icon" style="" viewBox="0 0 1024 1024" version="1.1" xmlns="http://www.w3.org/2000/svg" p-id="3357" xmlns:xlink="http://www.w3.org/1999/xlink" width="200" height="200"><defs><style type="text/css"></style></defs><path d="M463.36 460.288c0-5.632-4.608-10.24-10.24-10.24h-32.768c-5.632 0-10.24 4.608-10.24 10.24v32.768c0 5.632 4.608 10.24 10.24 10.24h32.768c5.632 0 10.24-4.608 10.24-10.24v-32.768z m0 165.376c0-5.632-4.608-10.24-10.24-10.24h-32.768c-5.632 0-10.24 4.608-10.24 10.24v32.768c0 5.632 4.608 10.24 10.24 10.24h32.768c5.632 0 10.24-4.608 10.24-10.24v-32.768zM353.792 367.616h-32.768c-5.632 0-10.24 4.608-10.24 10.24v32.768c0 5.632 4.608 10.24 10.24 10.24h32.768c5.632 0 10.24-4.608 10.24-10.24v-32.768c0-5.632-4.608-10.24-10.24-10.24z m109.568 340.48c0-5.632-4.608-10.24-10.24-10.24h-32.768c-5.632 0-10.24 4.608-10.24 10.24v32.768c0 5.632 4.608 10.24 10.24 10.24h32.768c5.632 0 10.24-4.608 10.24-10.24v-32.768z m-109.568-10.24h-32.768c-5.632 0-10.24 4.608-10.24 10.24v32.768c0 5.632 4.608 10.24 10.24 10.24h32.768c5.632 0 10.24-4.608 10.24-10.24v-32.768c0-5.632-4.608-10.24-10.24-10.24z m0-82.432h-32.768c-5.632 0-10.24 4.608-10.24 10.24v32.768c0 5.632 4.608 10.24 10.24 10.24h32.768c5.632 0 10.24-4.608 10.24-10.24v-32.768c0-5.632-4.608-10.24-10.24-10.24z m0-82.944h-32.768c-5.632 0-10.24 4.608-10.24 10.24v32.768c0 5.632 4.608 10.24 10.24 10.24h32.768c5.632 0 10.24-4.608 10.24-10.24V542.72c0-5.632-4.608-10.24-10.24-10.24z m0-82.432h-32.768c-5.632 0-10.24 4.608-10.24 10.24v32.768c0 5.632 4.608 10.24 10.24 10.24h32.768c5.632 0 10.24-4.608 10.24-10.24v-32.768c0-5.632-4.608-10.24-10.24-10.24zM463.36 542.72c0-5.632-4.608-10.24-10.24-10.24h-32.768c-5.632 0-10.24 4.608-10.24 10.24v32.768c0 5.632 4.608 10.24 10.24 10.24h32.768c5.632 0 10.24-4.608 10.24-10.24V542.72z m233.472-10.24h-32.768c-5.632 0-10.24 4.608-10.24 10.24v32.768c0 5.632 4.608 10.24 10.24 10.24h32.768c5.632 0 10.24-4.608 10.24-10.24V542.72c0-5.632-4.608-10.24-10.24-10.24z m0-82.432h-32.768c-5.632 0-10.24 4.608-10.24 10.24v32.768c0 5.632 4.608 10.24 10.24 10.24h32.768c5.632 0 10.24-4.608 10.24-10.24v-32.768c0-5.632-4.608-10.24-10.24-10.24z m0-82.432h-32.768c-5.632 0-10.24 4.608-10.24 10.24v32.768c0 5.632 4.608 10.24 10.24 10.24h32.768c5.632 0 10.24-4.608 10.24-10.24v-32.768c0-5.632-4.608-10.24-10.24-10.24z" fill="#F18050" p-id="3358"></path><path d="M896 21.504H128c-64 0-116.224 52.224-116.224 116.224V885.76c0 64 52.224 116.224 116.224 116.224h768c64 0 116.224-52.224 116.224-116.224V137.728c0-64-52.224-116.224-116.224-116.224z m-65.536 798.72c0 5.632-4.608 10.24-10.24 10.24H203.776c-5.632 0-10.24-4.608-10.24-10.24v-33.792c0-5.632 4.608-10.24 10.24-10.24h31.232V328.704c0-11.776 7.168-22.528 17.92-27.136l246.784-105.984c9.216-3.584 19.456-2.56 27.648 2.56 8.192 5.632 13.312 14.848 13.312 24.576v553.472h33.28V297.984c0-10.24 5.632-19.968 14.848-25.088 8.704-5.12 20.48-5.12 29.184 0l158.208 92.16c9.216 5.12 14.336 14.848 14.336 25.088v386.048h31.232c5.632 0 10.24 4.608 10.24 10.24v33.792z" fill="#F18050" p-id="3359"></path><path d="M696.832 697.856h-32.768c-5.632 0-10.24 4.608-10.24 10.24v32.768c0 5.632 4.608 10.24 10.24 10.24h32.768c5.632 0 10.24-4.608 10.24-10.24v-32.768c0-5.632-4.608-10.24-10.24-10.24zM463.36 294.912c0-5.632-4.608-10.24-10.24-10.24h-32.768c-5.632 0-10.24 4.608-10.24 10.24v32.768c0 5.632 4.608 10.24 10.24 10.24h32.768c5.632 0 10.24-4.608 10.24-10.24v-32.768z m0 82.432c0-5.632-4.608-10.24-10.24-10.24h-32.768c-5.632 0-10.24 4.608-10.24 10.24v32.768c0 5.632 4.608 10.24 10.24 10.24h32.768c5.632 0 10.24-4.608 10.24-10.24v-32.768z m233.472 238.08h-32.768c-5.632 0-10.24 4.608-10.24 10.24v32.768c0 5.632 4.608 10.24 10.24 10.24h32.768c5.632 0 10.24-4.608 10.24-10.24v-32.768c0-5.632-4.608-10.24-10.24-10.24z" fill="#F18050" p-id="3360"></path></svg>