<?xml version="1.0" encoding="utf-8"?>
<!-- Generator: Adobe Illustrator 19.0.0, SVG Export Plug-In . SVG Version: 6.00 Build 0)  -->
<svg version="1.1" id="图层_1" xmlns="http://www.w3.org/2000/svg" xmlns:xlink="http://www.w3.org/1999/xlink" x="0px" y="0px"
	 viewBox="0 0 699.1 721.3" style="enable-background:new 0 0 699.1 721.3;" xml:space="preserve">
<style type="text/css">
	.st0{fill-rule:evenodd;clip-rule:evenodd;}
</style>
<g>
	<path class="st0" d="M3057.5,721.3c-153.2,0-289.5,97.2-339,241.9l48.4,16.5c42.4-124,159.2-207.3,290.6-207.3
		c152,0,278.6,110.9,302.8,256l-44.1-29.3l-28.4,42.5l88,58.6c4.3,2.8,9.2,4.3,14.2,4.3c4.1,0,8.3-1,12.1-3
		c8.3-4.4,13.5-13.1,13.5-22.5C3415.7,881.7,3255,721.3,3057.5,721.3L3057.5,721.3L3057.5,721.3L3057.5,721.3z"/>
	<path class="st0" d="M3058.6,1385.2c-152,0-278.6-110.9-302.8-256l44.1,29.4l28.4-42.5l-88-58.6c-7.8-5.2-17.9-5.7-26.3-1.3
		c-8.3,4.4-13.5,13.1-13.5,22.5c0,197.1,160.7,357.5,358.2,357.5c153.3,0,289.5-97.2,339-241.9l-48.4-16.5
		C3306.8,1301.9,3190,1385.2,3058.6,1385.2L3058.6,1385.2L3058.6,1385.2L3058.6,1385.2z"/>
	<path class="st0" d="M2865.7,1226.7l-6.8-53.1l17.2-2.4V943.8h-11.6v-51.1h189.6v51.1h-14.4v203.9l23.1-3.6
		c-0.3,10.4,0,27.4,0.8,51.1l-23.9,4v68.6h-53.5V1208L2865.7,1226.7L2865.7,1226.7L2865.7,1226.7z M2929.5,983.3h56.7v-39.5h-56.7
		V983.3L2929.5,983.3L2929.5,983.3z M2929.5,1071.5h56.7V1032h-56.7V1071.5L2929.5,1071.5L2929.5,1071.5z M2986.2,1155.7v-35.5
		h-56.7v43.7L2986.2,1155.7L2986.2,1155.7L2986.2,1155.7z M3240.8,899.5v51.9c-10,76.4-29.8,142.1-59.5,197.1
		c20,28.1,44.4,50.2,73.4,66.2c-8.8,12.8-19.7,30.9-32.7,54.3c-28.6-18.8-53.3-41.6-74-68.4c-19.3,25.7-41.4,48.4-66.4,68
		c-9.6-17.8-20.1-35.8-31.5-53.9c24.9-19.2,46.4-41.6,64.6-67.2c-27-53.7-42.9-119.1-47.7-196.1h-7.4v-51.9L3240.8,899.5
		L3240.8,899.5L3240.8,899.5L3240.8,899.5z M3186.5,951.4h-67c4.5,52.5,14.4,98,29.5,136.5
		C3167.3,1047.9,3179.8,1002.4,3186.5,951.4L3186.5,951.4L3186.5,951.4z"/>
</g>
<g>
	<path class="st0" d="M2182.1,581.2c-225.3,0-409.6,184.3-409.6,409.6s184.3,409.6,409.6,409.6s409.6-184.3,409.6-409.6
		S2407.4,581.2,2182.1,581.2L2182.1,581.2z M1961.9,980.6c-15.4,10.2-25.6,20.5-30.7,25.6c0,5.1-5.1,15.4-5.1,15.4s0-15.4,5.1-35.8
		c5.1-15.4,15.4-30.7,25.6-35.8c-5.1,0,5.1-10.2,20.5-10.2c10.2,0,25.6-5.1,25.6-5.1v-30.7l71.7,51.2l-71.7,51.2v-30.7
		C2002.9,975.5,1977.3,975.5,1961.9,980.6L1961.9,980.6z M2376.6,1175.2c0,20.5-15.4,41-41,41h-297c-20.5,0-41-15.4-41-41v-143.4h41
		v143.4h297v-143.4h41V1175.2L2376.6,1175.2z M2166.7,1047.2h-61.4v-20.5h51.2l-41-76.8h30.7l46.1,76.8l41-76.8h30.7l-46.1,76.8
		h51.2v20.5h-61.4l-5.1,10.2v20.5h66.6v20.5h-66.6v46.1h-30.7v-46.1h-66.6v-20.5h66.6v-20.5L2166.7,1047.2L2166.7,1047.2z
		 M2438.1,970.4h-61.4l0,0l-194.6-153.6L2069.4,914l-35.8-20.5l148.5-128l204.8,163.8h51.2V970.4L2438.1,970.4z"/>
</g>
<g>
	<path class="st0" d="M419.2,354.1c10.8,0,17.1-8.4,17.1-19.3c0-10.9-6.3-18.5-17.1-18.5h-41.8l43.2-43.4c7.7-7.7,7.7-20.2,0-27.9
		c-7.7-7.7-20.2-7.7-27.9,0l-39.9,40.1l-39.8-39.9c-7.7-7.7-20.2-7.7-28,0c-7.7,7.7-7.7,20.2,0,28l43.1,43.2h-41.2
		c-10.8,0-17.2,7.7-17.2,18.6c0,10.9,6.4,19.3,17.2,19.3h42.5v23.7h-42.5c-10.8,0-17.2,7-17.2,17.9s6.4,19.9,17.2,19.9h42.5V444
		c0,13.6,10.1,23.6,23.6,23.6c13.5,0,23.6-10,23.6-23.6v-28.4h43.8c10.8,0,16-7.3,16-18.1c0-14.1-7.6-19.6-18.4-19.6h-41.3v-23.7
		L419.2,354.1L419.2,354.1z"/>
	<path class="st0" d="M352.2,21.3C168.7,21.3,20,170,20,353.4s148.7,332.2,332.2,332.2c183.4-0.1,332.1-148.8,332.1-332.2
		c0-88.1-34.9-172.6-97.2-234.9C524.8,56.3,440.3,21.3,352.2,21.3L352.2,21.3z M393.9,554.6c-23.7,19.4-57.8,19.5-81.6,0.3
		L128.7,394c-5.9-6.7-8-16-5.4-24.6c2.6-8.6,9.4-15.3,18.1-17.6c8.7-2.4,2.6-1,6.5-1h54.1V183c0-24.1,18.2-41.9,42.2-41.9h217.7
		c11.2-0.3,22.1,4,30.1,11.9c8,7.9,12.3,18.8,12.1,30v167.8h53.1l0.5-0.1l0.5,0.1h0.6v0.1c9.9,0.4,18.8,6.4,22.8,15.5
		c4,9.1,2.5,19.7-3.9,27.3L393.9,554.6L393.9,554.6z"/>
</g>
<g>
	<path class="st0" d="M2752.5-64C2555-64,2395,96.1,2395,293.6c0,197.5,160.1,357.5,357.5,357.5c197.5,0,357.5-160.1,357.5-357.5
		C3110,96.1,2949.9-64,2752.5-64L2752.5-64z M2559,272.2h-62.4V233h50.6l207.4-165.6l149.9,126.3l-32.3,24.3l-117.6-98L2560,272.2
		H2559L2559,272.2z M2833.7,383.7v22.8h-68.4v45.8h-30.7v-45.8h-68.4v-22.8h68.4v-20.3l-5.3-10.2h-63.1v-22.8h52.6l-45.8-75.9h31.9
		l44.3,75.9l45.3-75.9h31.9l-45.1,75.9h52.5v22.8h-63.5l-4.9,10.2v20.3H2833.7L2833.7,383.7z M2939.4,481.7
		c0,21.7-17.5,39.3-39.2,39.3h-300.5c-21.7,0-39.2-17.6-39.2-39.3v-144h39.2v144h300.5v-144h39.2V481.7L2939.4,481.7z M3009,309.9
		c-2.5-3.4-12.9-16.3-29-23.7c-16.1-7.4-43.1-6.1-43.1-6.1v31l-74.3-52.6l74.3-52.6v31.2c0,0,17.8,1.3,27.2,3.3
		c15.7,3.3,24.3,11,24.3,11c9.2,5.5,20.5,20.3,25.2,38.1c4.7,17.8,3.9,33.8,3.9,33.8S3011.4,313.3,3009,309.9L3009,309.9z"/>
</g>
<g>
	<path class="st0" d="M4138.9,408c-11.5-11.6-25.9-23.4-43.4-35.4l-12.5,11.7c18.3,12.2,32.8,24.1,43.4,35.6L4138.9,408L4138.9,408z
		 M4236.2,342c22.6-3,42.7-7.6,60.1-13.6l-8.7-14.8c-36.1,11.8-81.3,17.7-135.7,17.7l5.5,15.5c20.3,0,40.5-0.9,60.6-2.6v37.5h-71.4
		v16.5h71.4v37.1h-54.6v96.4h17.7v-13.1h93.5v12.7h17.7v-95.9h-56.1v-37.1h71.8v-16.5h-71.8L4236.2,342L4236.2,342L4236.2,342z
		 M4274.6,451.6v50.7h-93.5v-50.7H4274.6L4274.6,451.6z M4088.8,326.7c18.9,11.8,33.4,22.5,43.4,32l12.5-11.7
		c-13.6-11.8-28.2-22.4-43.7-31.6L4088.8,326.7L4088.8,326.7z M4087.5,521.1l17.9,7.4c13.7-28.2,25.7-57.2,36.2-86.8l-16.2-6.2
		C4114.6,464.8,4101.9,493.4,4087.5,521.1L4087.5,521.1z M4483.8-42.8H4587v22.4h10.6v-32.4h-55.2c-2-5.7-4.4-11.4-7-16.9l-11.7,1.8
		c2.9,4.9,5.5,9.9,7.6,15.1h-58.1v33.2h10.7V-42.8L4483.8-42.8z"/>
	<path class="st0" d="M4541.6,55.8V24.3h45.3V14h-45.3v-26.8h38.6v-10.3h-89.5v10.3h39.9v66.3l-4.4-1.2c-11-3.5-20.1-11.9-27.4-24.8
		c2.9-8.5,5.3-17.2,7-26l-10.7-1.8c-5.2,26.3-15,47.1-29.5,62.5l7,8.7c9.2-9.6,16.6-20.7,21.9-32.9c5.8,9.6,14.4,17.2,24.5,21.9
		c13.5,5.7,35.5,8.5,66,8.5h17l2-11c-8.2,0.6-16.2,0.9-24,0.9C4567.3,58.4,4554.4,57.6,4541.6,55.8L4541.6,55.8z"/>
	<path class="st0" d="M4532.6-155C4447.3-155,4378-85.6,4378-0.4c0,85.2,69.4,154.6,154.6,154.6c85.2,0,154.6-69.3,154.6-154.6
		C4687.2-85.6,4617.8-155,4532.6-155L4532.6-155z M4532.6,125.3C4463.2,125.2,4407,69,4406.9-0.3c0.1-69.4,56.3-125.6,125.7-125.6
		c69.3,0.1,125.5,56.3,125.6,125.6C4658.1,69,4601.9,125.2,4532.6,125.3L4532.6,125.3z M4191.9,178.2c-134,0-243,109-243,243
		c0,133.9,109,242.9,243,242.9c134,0,243-109,243-243C4434.8,287.2,4325.8,178.2,4191.9,178.2L4191.9,178.2z M4191.9,618.6
		c-108.9,0-197.4-88.6-197.4-197.4s88.6-197.4,197.4-197.4c108.9,0,197.4,88.6,197.4,197.4S4300.7,618.6,4191.9,618.6L4191.9,618.6z
		 M3954.5,240.5c-15.1-57.9-2.4-119,39.6-161.3c37.7-38,90.8-52.4,143.3-44.3l1.2,78.4l130.8-132l-134.8-133.6l1.2,78.9l-0.1-0.1
		c-53.1,3.6-103.9,24.9-142.9,64.2c-66.3,66.9-80.1,167.5-43.5,255.1L3954.5,240.5L3954.5,240.5z"/>
</g>
<path class="st0" d="M956.1,274.6h346.8c33.9-39,101.3-111.8,114.1-124.9H958.1v0c0,0,0.5-19.9,0.5-19.9H1454v18.5
	c0.2,0.2,0.3,0.4,0.4,0.4l19.8,22.4V88.7c0-21.3-17.3-38.6-38.6-38.6H934.4c-21.3,0-38.6,17.3-38.6,38.6v330.5
	c0,21.3,17.3,38.6,38.6,38.6h412.7v-57.6H955.1l-1-125.6H956.1z"/>
<path class="st0" d="M1580.5,324.9l-125.7-142.1c-8.5-9.2-21.8-9.5-30.7-0.8c-3.8,3.7-7.3,7.6-10.8,11.5
	c-13,14.3-25.7,28.8-38.4,43.3c-25.1,28.7-50.1,57.5-74.8,86.6c-1.3,1.5-2.6,3-3.9,4.6c-4.8,4.5-10.4,11.8-8.1,18.8
	c2.4,7.4,12,8.5,18.6,8.5h55.6v126.1c0,7.1,5.8,12.9,12.9,12.9h127.1c7.1,0,12.9-5.8,12.9-12.9V354.2h58.8
	c14.1,0,15.9-10.6,15.8-13.7C1589.8,333.7,1582.3,326.5,1580.5,324.9z M1506.4,388h-52.1v25.7h-31.5V388h-51.6v-12.3h51.6v-29.1
	h-51.6v-12.3h51.6v-4.7l-38-50.2h25.4l27.8,40.1h1.7l27.8-40.1h25.3l-38.5,50.8v4.1h52.1v12.3h-52.1v29.1h52.1V388z"/>
<polygon class="st0" points="973.2,299.6 1204.9,299.6 1204.9,325 973.2,325 973.2,299.6 "/>
<polygon class="st0" points="973.2,358.8 1140.9,358.8 1140.9,384.3 973.2,384.3 973.2,358.8 "/>
<path class="st0" d="M1555.1,1033.5h-58.8V902.3c0-7.3-5.8-13.3-12.9-13.3h-127.1c-7.1,0-12.9,5.9-12.9,13.3v130.2h-55.6
	c-6.6,0-16.1,1.1-18.6,8.7c-2.3,7.2,3.3,14.8,8.1,19.4c1.2,1.6,2.6,3.2,3.9,4.8c24.7,30,49.7,59.7,74.8,89.4
	c12.7,15,25.4,30,38.4,44.7c3.5,4,7.1,8.1,10.8,11.9c8.9,9,22.2,8.7,30.7-0.8l125.7-146.7c1.8-1.6,9.3-9,9.3-16.1
	C1571,1044.5,1569.2,1033.5,1555.1,1033.5z M1486.3,1079.2h-50.9v25.1h-30.8v-25.1h-50.4v-12h50.4v-28.4h-50.4v-12h50.4v-4.6
	l-37.1-49h24.8l27.1,39.2h1.7l27.1-39.2h24.7l-37.6,49.6v4h50.9v12h-50.9v28.4h50.9V1079.2z"/>
<path class="st0" d="M359.1,1067c10.8,0,17.1-8.4,17.1-19.3c0-10.9-6.3-18.5-17.1-18.5h-41.8l43.2-43.4c7.7-7.7,7.7-20.2,0-27.9
	c-7.7-7.7-20.2-7.7-27.9,0l-39.9,40.1l-39.8-39.9c-7.7-7.7-20.2-7.7-28,0c-7.7,7.7-7.7,20.2,0,28l43.1,43.2h-41.2
	c-10.8,0-17.2,7.7-17.2,18.6c0,10.9,6.4,19.3,17.2,19.3h42.5v23.7h-42.5c-10.8,0-17.2,7-17.2,17.9c0,10.9,6.4,19.9,17.2,19.9h42.5
	v28.4c0,13.6,10.1,23.6,23.6,23.6c13.5,0,23.6-10,23.6-23.6v-28.4h43.8c10.8,0,16-7.3,16-18.1c0-14.1-7.6-19.6-18.4-19.6h-41.3
	v-23.7L359.1,1067L359.1,1067z"/>
<path class="st0" d="M526.9,831.4c-62.3-62.3-146.8-97.3-234.9-97.3c-183.5,0-332.2,148.7-332.2,332.2s148.7,332.2,332.2,332.2
	c183.4-0.1,332.1-148.8,332.1-332.2C624.2,978.2,589.2,893.7,526.9,831.4z M522.6,1053.7c-2.6,8.6-9.4,15.3-18.1,17.6
	c-8.7,2.4-2.6,1-6.5,1h-54.1v167.8c0,24.1-18.2,41.9-42.2,41.9H184c-11.2,0.3-22.1-4-30.1-11.9c-8-7.9-12.3-18.8-12.1-30v-167.8
	H88.7l-0.5,0.1l-0.5-0.1h-0.6v-0.1c-9.9-0.4-18.8-6.4-22.8-15.5c-4-9.1-2.5-19.7,3.9-27.3l183.8-160.9c23.7-19.4,57.8-19.5,81.6-0.3
	L517.2,1029C523.1,1035.8,525.2,1045.1,522.6,1053.7z"/>
<path class="st0" d="M907.1,967.6h415.8l2.1-124.9H909.1l0,0c0,0,0.5-19.9,0.5-19.9H1405v40.5c0.2,0.2,0.3,1.4,0.4,1.4l19.8-0.6
	v-82.4c0-21.3-17.3-38.6-38.6-38.6H885.4c-21.3,0-38.6,17.3-38.6,38.6v330.5c0,21.3,17.3,38.6,38.6,38.6h442.7l-50-57.6H906.1
	l-1-125.6H907.1z"/>
<polygon class="st0" points="930.2,988.6 1161.9,988.6 1161.9,1014 930.2,1014 930.2,988.6 "/>
<polygon class="st0" points="930.2,1047.8 1097.9,1047.8 1097.9,1073.3 930.2,1073.3 930.2,1047.8 "/>
</svg>
