<?xml version="1.0" standalone="no"?><!DOCTYPE svg PUBLIC "-//W3C//DTD SVG 1.1//EN" "http://www.w3.org/Graphics/SVG/1.1/DTD/svg11.dtd"><svg t="1500174788249" class="icon" style="" viewBox="0 0 1024 1024" version="1.1" xmlns="http://www.w3.org/2000/svg" p-id="3025" xmlns:xlink="http://www.w3.org/1999/xlink" width="200" height="200"><defs><style type="text/css"></style></defs><path d="M61.44 143.21664A81.83808 81.83808 0 0 1 143.21664 61.44h758.04672A81.83808 81.83808 0 0 1 983.04 143.21664v758.04672A81.83808 81.83808 0 0 1 901.26336 983.04H143.21664A81.83808 81.83808 0 0 1 61.44 901.26336V143.21664zM486.8096 530.6368l-0.55296 92.0576-107.25376-0.49152 0.55296-92.03712 107.25376 0.47104z m277.01248 1.29024L532.6848 331.40736l-233.5744 198.4512-0.98304 161.0752c-0.04096 12.75904 11.85792 23.08096 26.68544 23.1424l250.22464 1.10592 1.14688-184.17664 107.25376 0.49152-1.16736 184.15616 53.59616 0.24576c14.82752 0.06144 26.91072-10.1376 26.97216-22.89664l0.98304-161.0752z m53.82144-38.17472a21.13536 21.13536 0 0 0-7.168-15.6672l0.06144-0.06144-99.47136-86.34368 0.43008-67.19488c0.06144-12.75904-11.83744-23.10144-26.66496-23.1424-14.82752-0.08192-26.86976 10.1376-26.99264 22.89664l-0.1024 21.1968-104.93952-91.07456a28.672 28.672 0 0 0-16.65024-7.22944h-0.06144c-0.43008-0.06144-0.79872-0.06144-1.2288-0.06144-0.06144 0-0.1024-0.06144-0.22528-0.06144h-1.41312a28.7744 28.7744 0 0 0-19.37408 6.98368L254.07488 474.624c-5.09952 4.13696-8.31488 10.0352-8.31488 16.52736-0.06144 12.75904 11.85792 23.08096 26.66496 23.1424 7.3728 0.06144 13.98784-2.47808 18.90304-6.49216L532.93056 302.4896v0.06144l0.65536 0.53248L772.5056 510.40256l0.06144-0.06144c4.73088 3.8912 11.12064 6.26688 18.16576 6.32832 14.76608 0.06144 26.84928-10.15808 26.91072-22.91712z" fill="#91A7D0" p-id="3026"></path></svg>