<?xml version="1.0" standalone="no"?><!DOCTYPE svg PUBLIC "-//W3C//DTD SVG 1.1//EN" "http://www.w3.org/Graphics/SVG/1.1/DTD/svg11.dtd"><svg t="1500174932357" class="icon" style="" viewBox="0 0 1024 1024" version="1.1" xmlns="http://www.w3.org/2000/svg" p-id="2931" xmlns:xlink="http://www.w3.org/1999/xlink" width="200" height="200"><defs><style type="text/css"></style></defs><path d="M788.670807 0H228.968944C101.763975 0 0 101.763975 0 228.968944v566.062112c0 127.204969 101.763975 228.968944 228.968944 228.968944h559.701863c127.204969 0 228.968944-101.763975 228.968945-228.968944V228.968944c0-127.204969-101.763975-228.968944-228.968945-228.968944zM699.627329 407.055901c44.521739 0 82.68323 38.161491 82.68323 82.683229 0 44.521739-38.161491 82.68323-82.68323 82.68323-44.521739 0-82.68323-38.161491-82.68323-82.68323s38.161491-82.68323 82.68323-82.683229zM400.695652 197.167702c69.962733 0 120.84472 57.242236 120.844721 120.84472 0 63.602484-57.242236 120.84472-120.844721 120.844721S279.850932 381.614907 279.850932 318.012422c0-63.602484 57.242236-120.84472 120.84472-120.84472z m241.689441 623.304348H159.006211v-19.080746c0-184.447205 108.124224-330.732919 241.689441-330.732919 133.565217 0 241.689441 146.285714 241.689441 330.732919v19.080746z m216.248447 0h-146.285714v-19.080746c0-76.322981-19.080745-152.645963-50.881987-209.888198 12.720497-6.360248 25.440994-6.360248 31.801242-6.360249 89.043478 0 165.36646 101.763975 165.366459 222.608696v12.720497z" fill="#83CC2B" p-id="2932"></path></svg>